<svg width="45" height="45" viewBox="0 0 45 45" fill="none" xmlns="http://www.w3.org/2000/svg">
<g clip-path="url(#clip0)">
<path d="M44.7004 12.5719L32.4277 0.299163C32.0281 -0.100372 31.3809 -0.100372 30.9815 0.299163L22.5001 8.78058L22.2004 8.48096C21.8009 8.08142 21.1537 8.08142 20.7543 8.48096L3.19206 26.0431C1.13456 28.1016 0 30.8381 0 33.7496C0 39.9529 5.04774 44.9995 11.25 44.9995C14.1185 44.9995 16.9289 43.836 18.9564 41.8075L36.5186 24.2453C36.9181 23.8457 36.9181 23.1986 36.5186 22.7991L36.219 22.4995L44.7004 14.0181C45.0999 13.6186 45.0999 12.9714 44.7004 12.5719ZM17.5102 40.3613C15.8622 42.0093 13.5811 42.9541 11.25 42.9541C6.17424 42.9541 2.04543 38.8252 2.04543 33.7496C2.04543 31.3845 2.96626 29.1613 4.63823 27.4893L21.4773 10.6503L34.3493 23.5222L17.5102 40.3613ZM34.7728 21.0533L23.9462 10.2268L31.7046 2.46846L42.5312 13.295L34.7728 21.0533Z" fill="#24C6DC"/>
<path d="M27.8994 9.51892C27.5139 9.92047 27.5199 10.5566 27.9134 10.9501L28.9362 11.9729C29.1359 12.1726 29.3977 12.2725 29.6593 12.2725C29.921 12.2725 30.1826 12.1726 30.3825 11.9729L33.4506 8.90471C33.8502 8.50518 33.8502 7.85798 33.4506 7.45854L32.4279 6.43578C32.33 6.33789 32.2122 6.25802 32.0843 6.20711C31.3651 5.9164 31.3651 5.90844 27.8994 9.51892Z" fill="#24C6DC"/>
<path d="M33.0291 16.0658L34.0519 17.0886C34.2516 17.2883 34.5133 17.3882 34.775 17.3882C35.0367 17.3882 35.2983 17.2883 35.4981 17.0886L38.5663 14.0204C38.9659 13.6209 38.9659 12.9737 38.5663 12.5742L37.5436 11.5515C37.4457 11.4536 37.3278 11.3737 37.2 11.3228C36.4829 11.0322 36.4809 11.0241 33.0152 14.6347C32.6297 15.0362 32.6356 15.6723 33.0291 16.0658Z" fill="#24C6DC"/>
<path d="M20.6782 21.6728C20.5963 22.0183 20.7001 22.3809 20.9498 22.6316L20.9503 22.6321L14.8895 28.6921L14.3659 27.1209C14.2421 26.7524 14.3359 26.3519 14.6136 26.0753L15.3875 25.3007C15.5534 25.3429 15.7179 25.3981 15.888 25.3981C16.4114 25.3981 16.9348 25.1984 17.3342 24.7998C18.1313 24.0029 18.1313 22.7045 17.3342 21.9074C16.5352 21.1104 15.2408 21.1104 14.4418 21.9074C13.9137 22.4355 13.7695 23.1777 13.9412 23.8543L13.1674 24.628C12.3384 25.456 12.0548 26.6596 12.4244 27.7691L13.2713 30.31L12.7732 30.8081C12.097 30.6363 11.3558 30.7805 10.8263 31.3086C10.0293 32.1057 10.0293 33.404 10.8263 34.2011C11.2258 34.5995 11.7492 34.7993 12.2725 34.7993C12.7958 34.7993 13.3192 34.5996 13.7186 34.2011C14.2466 33.673 14.391 32.9307 14.2192 32.2542L16.1653 30.3085L18.7044 31.1548C19.026 31.2627 19.3557 31.3156 19.6832 31.3156C20.4803 31.3156 21.2573 31.002 21.8445 30.4147L22.3974 29.8619L22.3979 29.8624C22.5976 30.0611 22.8593 30.161 23.121 30.161C23.3827 30.161 23.6443 30.0611 23.8441 29.8614L25.2903 28.4152C25.6898 28.0157 25.6898 27.3685 25.2903 26.9691L23.8441 25.5229C23.4446 25.1233 22.7974 25.1244 22.398 25.5219L20.9498 26.9682C20.758 27.16 20.6502 27.4207 20.6502 27.6923C20.6502 27.9639 20.758 28.2246 20.9498 28.4164L20.9503 28.4169L20.3985 28.9686C20.1208 29.2453 19.7193 29.3372 19.3517 29.2153L17.7821 28.6921L22.3975 24.0772L22.398 24.0777C22.5917 24.2714 22.8534 24.3763 23.1211 24.3763C23.199 24.3763 23.2789 24.3673 23.3568 24.3494C23.7003 24.2675 23.98 24.0129 24.0919 23.6773L24.815 21.508C24.9369 21.1405 24.841 20.7349 24.5674 20.4612C24.2957 20.1886 23.8903 20.0927 23.5206 20.2136L21.3493 20.9367C21.0137 21.0496 20.758 21.3271 20.6782 21.6728ZM15.888 23.3526L16.6112 24.0767L15.8901 23.3567C15.8892 23.3558 15.8889 23.3545 15.888 23.3537V23.3526ZM12.2726 32.7559V32.755C12.2726 32.755 12.2747 32.7561 12.2755 32.757L12.9956 33.4781L12.2726 32.7559Z" fill="#24C6DC"/>
</g>
<defs>
<clipPath id="clip0">
<rect width="45" height="45" fill="white"/>
</clipPath>
</defs>
</svg>
