<svg width="60" height="60" viewBox="0 0 60 60" xmlns="http://www.w3.org/2000/svg">
  <path d="M59.4358 48.9049L1.1956 26.4776C0.747595 26.3051 0.22986 26.5349 0.0573592 26.983C-0.115024 27.4309 0.114898 27.9489 0.56279 28.1213L28.5243 38.8887L18.0395 51.9946C17.5867 52.5608 18.0045 53.4254 18.7271 53.4254H41.2717C41.9942 53.4254 42.4122 52.5606 41.9594 51.9946L32.7881 40.5307L58.803 50.5485C59.2749 50.7302 59.8164 50.4644 59.9627 49.981C60.0942 49.5454 59.86 49.0681 59.4358 48.9049ZM39.4392 51.664H20.5591L29.9992 39.8641L39.4392 51.664Z"/>
  <path d="M19.9374 10.5927C19.6288 10.2168 19.0738 10.1623 18.698 10.4707C18.322 10.7793 18.2674 11.3343 18.576 11.7102C19.9228 13.3512 20.6645 15.4265 20.6645 17.5537C20.6645 22.6362 16.5295 26.7711 11.4471 26.7711C6.36468 26.7711 2.22971 22.6361 2.22971 17.5537C2.22971 12.4712 6.36456 8.33616 11.4471 8.33616C12.8578 8.33616 14.2111 8.64612 15.4696 9.25749C15.907 9.46995 16.434 9.28772 16.6465 8.85014C16.859 8.41268 16.6767 7.8858 16.2392 7.67322C14.7389 6.94432 13.1266 6.57471 11.447 6.57471C5.39331 6.57471 0.468262 11.4998 0.468262 17.5534C0.468262 23.6071 5.39343 28.5322 11.4471 28.5322C17.5008 28.5322 22.4258 23.6071 22.4258 17.5534C22.4258 15.02 21.5421 12.5479 19.9374 10.5927Z"/>
  <path d="M13.8892 16.6025C14.3756 16.6025 14.7698 16.2082 14.7698 15.7219V15.1113C14.7698 13.7068 13.6969 12.5484 12.3275 12.4124V11.4478C12.3275 10.9615 11.9333 10.5671 11.4469 10.5671C10.9604 10.5671 10.5662 10.9615 10.5662 11.4478V12.4546C9.17671 12.7241 8.1239 13.9493 8.1239 15.4165C8.1239 17.0804 9.47765 18.4342 11.1416 18.4342H11.752C12.4448 18.4342 13.0084 18.9979 13.0084 19.6906C13.0084 20.3833 12.4447 20.9469 11.752 20.9469H10.8362C10.3118 20.9469 9.88511 20.5202 9.88511 19.9958C9.88511 19.5095 9.49089 19.1152 9.00444 19.1152C8.518 19.1152 8.12378 19.5095 8.12378 19.9958C8.12378 21.4003 9.19675 22.5587 10.5661 22.6948V23.6594C10.5661 24.1457 10.9603 24.54 11.4468 24.54C11.9332 24.54 12.3274 24.1457 12.3274 23.6594V22.6526C13.7169 22.3832 14.7697 21.1579 14.7697 19.6907C14.7697 18.0267 13.416 16.673 11.752 16.673H11.1416C10.4488 16.673 9.88523 16.1093 9.88523 15.4166C9.88523 14.7238 10.4489 14.1602 11.1416 14.1602H12.0574C12.5818 14.1602 13.0085 14.5869 13.0085 15.1113V15.7219C13.0085 16.2082 13.4029 16.6025 13.8892 16.6025Z"/>
  <path d="M51.5457 21.0092V19.6671H52.4264C52.9129 19.6671 53.3071 19.2728 53.3071 18.7865C53.3071 18.3001 52.9129 17.9058 52.4264 17.9058H51.5457V17.7884C51.5457 17.3021 51.1515 16.9077 50.6651 16.9077H46.9077C46.4212 16.9077 46.027 17.3021 46.027 17.7884V17.9058H45.2051C44.7186 17.9058 44.3244 18.3001 44.3244 18.7865C44.3244 19.2728 44.7186 19.6671 45.2051 19.6671H46.027V21.0092C41.1737 22.2419 37.5728 26.6475 37.5728 31.8788C37.5728 38.062 42.603 43.0924 48.7863 43.0924C54.9695 43.0924 59.9999 38.062 59.9999 31.8788C59.9999 26.6475 56.3991 22.2419 51.5457 21.0092ZM47.7882 18.6692H49.7844V20.6653H47.7882V18.6692ZM48.7863 41.3312C43.5743 41.3312 39.3341 37.091 39.3341 31.8789C39.3341 26.6669 43.5744 22.4267 48.7863 22.4267C53.9983 22.4267 58.2386 26.667 58.2386 31.8789C58.2387 37.0909 53.9984 41.3312 48.7863 41.3312Z"/>
  <path d="M48.7865 24.4226C44.6752 24.4226 41.3303 27.7674 41.3303 31.8788C41.3303 35.9902 44.6751 39.335 48.7865 39.335C52.8978 39.335 56.2427 35.9902 56.2427 31.8788C56.2427 27.7674 52.8979 24.4226 48.7865 24.4226ZM48.7865 37.5735C45.6463 37.5735 43.0917 35.0188 43.0917 31.8787C43.0917 28.7385 45.6463 26.1838 48.7865 26.1838C51.9267 26.1838 54.4814 28.7385 54.4814 31.8787C54.4814 35.0188 51.9267 37.5735 48.7865 37.5735Z"/>
  <path d="M52.3372 30.4509C52.0674 30.0461 51.5206 29.9368 51.1159 30.2067L48.8986 31.6849L46.5911 29.3773C46.247 29.0334 45.6896 29.0334 45.3456 29.3773C45.0017 29.7213 45.0017 30.2789 45.3456 30.6227L48.1636 33.4408C48.4568 33.734 48.9296 33.7812 49.2749 33.5509L52.0931 31.6721C52.4976 31.4024 52.607 30.8556 52.3372 30.4509Z"/>
</svg>
