<svg width="15" height="15" viewBox="0 0 15 15" fill="none" xmlns="http://www.w3.org/2000/svg">
<g clip-path="url(#clip0)">
<path d="M14.6066 2.00054C14.3443 1.73823 14.029 1.60715 13.6607 1.60715H1.33931C0.971018 1.60715 0.655672 1.73823 0.393391 2.00054C0.131082 2.26279 0 2.57811 0 2.94646V12.0537C0 12.4221 0.131082 12.7372 0.393391 12.9994C0.655643 13.2619 0.970989 13.3929 1.33931 13.3929H13.6608C14.029 13.3929 14.3443 13.2619 14.6066 12.9994C14.869 12.7372 15 12.4219 15 12.0537V2.94646C14.9999 2.57811 14.869 2.26279 14.6066 2.00054ZM13.9284 12.0535C13.9284 12.126 13.902 12.1888 13.8489 12.2418C13.7958 12.2949 13.7331 12.3212 13.6606 12.3212H1.33923C1.26669 12.3212 1.20389 12.2949 1.15091 12.2418C1.09788 12.1888 1.0714 12.126 1.0714 12.0535V5.62495C1.24995 5.82584 1.44248 6.01002 1.64897 6.1774C3.14455 7.32694 4.33314 8.26996 5.21486 9.00661C5.49945 9.24661 5.73106 9.43351 5.90961 9.56747C6.08816 9.70148 6.3295 9.83675 6.63359 9.97341C6.93771 10.1103 7.22374 10.1784 7.49159 10.1784H7.5H7.50833C7.77612 10.1784 8.06227 10.1103 8.36627 9.97341C8.67047 9.83675 8.91197 9.70151 9.09046 9.56747C9.26897 9.43351 9.50062 9.24661 9.78524 9.00661C10.667 8.26996 11.8554 7.32694 13.351 6.1774C13.5575 6.01005 13.7501 5.82584 13.9284 5.62495V12.0535ZM13.9284 3.16403V3.25609C13.9284 3.58531 13.7988 3.95226 13.5393 4.35679C13.2798 4.76132 12.9993 5.08365 12.6982 5.32353C11.621 6.17188 10.5023 7.05627 9.34139 7.97701C9.30797 8.00489 9.21022 8.08716 9.04833 8.22381C8.88667 8.36067 8.75825 8.46542 8.66335 8.53787C8.56833 8.61052 8.44431 8.69838 8.29092 8.80153C8.13741 8.90467 7.99654 8.98154 7.86821 9.0317C7.73988 9.08175 7.61988 9.10682 7.50833 9.10682H7.5H7.49159C7.38 9.10682 7.26012 9.08175 7.13171 9.0317C7.00338 8.98154 6.86242 8.90467 6.70903 8.80153C6.55566 8.69836 6.43147 8.61049 6.3366 8.53787C6.24178 8.46542 6.11337 8.36067 5.95159 8.22381C5.78976 8.08716 5.69201 8.00489 5.65856 7.97701C4.49788 7.05624 3.37907 6.17188 2.30201 5.32353C1.48165 4.6763 1.07155 3.88383 1.07155 2.94632C1.07155 2.87384 1.09802 2.81101 1.15106 2.75806C1.2041 2.70503 1.26684 2.6785 1.33937 2.6785H13.6608C13.7054 2.70356 13.7445 2.71054 13.778 2.69946C13.8115 2.68817 13.8366 2.70916 13.8532 2.76214C13.87 2.81518 13.8853 2.84024 13.8993 2.83749C13.9132 2.83467 13.9217 2.86953 13.9244 2.94218C13.927 3.01469 13.9285 3.05119 13.9285 3.05119V3.16403H13.9284Z" fill="white"/>
</g>
<defs>
<clipPath id="clip0">
<rect width="15" height="15" fill="white"/>
</clipPath>
</defs>
</svg>
