<svg width="45" height="43" viewBox="0 0 45 43" fill="none" xmlns="http://www.w3.org/2000/svg">
<path d="M36.5978 11.5663C36.1166 8.70695 34.7008 6.09745 32.5355 4.1172C30.1296 1.91485 27.0019 0.702637 23.7446 0.702637C21.2276 0.702637 18.7754 1.42441 16.6749 2.78468C14.926 3.91362 13.4732 5.44045 12.446 7.23564C12.0019 7.15236 11.5392 7.10609 11.0765 7.10609C7.14374 7.10609 3.94201 10.3078 3.94201 14.2406C3.94201 14.7495 3.99753 15.24 4.09007 15.7211C1.54534 17.5719 0 20.5515 0 23.7255C0 26.2887 0.953115 28.7779 2.69278 30.7489C4.47872 32.7662 6.83837 33.9599 9.35534 34.0987C9.3831 34.0987 9.4016 34.0987 9.42937 34.0987H17.3874C18.0814 34.0987 18.6366 33.5435 18.6366 32.8495C18.6366 32.1554 18.0814 31.6002 17.3874 31.6002H9.46638C5.68168 31.3689 2.49846 27.7693 2.49846 23.7162C2.49846 21.0975 3.905 18.6545 6.17212 17.3313C6.69957 17.0259 6.92165 16.3874 6.71808 15.8137C6.533 15.314 6.44047 14.7865 6.44047 14.2221C6.44047 11.6681 8.52252 9.58604 11.0765 9.58604C11.6225 9.58604 12.1592 9.67858 12.6589 9.86365C13.2696 10.0857 13.9451 9.80813 14.2227 9.22515C15.9531 5.5515 19.6915 3.18259 23.7539 3.18259C29.2134 3.18259 33.7199 7.27266 34.2381 12.6952C34.2936 13.2597 34.7193 13.7131 35.2745 13.8057C39.3924 14.5089 42.5015 18.3121 42.5015 22.6521C42.5015 27.2511 38.8834 31.2486 34.4232 31.591H27.6033C26.9093 31.591 26.3541 32.1462 26.3541 32.8402C26.3541 33.5342 26.9093 34.0894 27.6033 34.0894H34.4695C34.4972 34.0894 34.525 34.0894 34.562 34.0894C37.3843 33.8859 40.0216 32.5904 41.9833 30.425C43.9358 28.2782 45 25.5206 45 22.6521C44.9907 17.4608 41.4466 12.8433 36.5978 11.5663Z" fill="#24C6DC"/>
<path d="M30.0002 24.9101C30.4906 24.4197 30.4906 23.6331 30.0002 23.1427L23.3839 16.5264C23.1526 16.2951 22.8287 16.1562 22.5048 16.1562C22.1809 16.1562 21.8571 16.2858 21.6257 16.5264L15.0094 23.1427C14.519 23.6331 14.519 24.4197 15.0094 24.9101C15.25 25.1507 15.5739 25.2802 15.8885 25.2802C16.2031 25.2802 16.527 25.16 16.7676 24.9101L21.2556 20.4221V41.0483C21.2556 41.7423 21.8108 42.2975 22.5048 42.2975C23.1988 42.2975 23.754 41.7423 23.754 41.0483V20.4221L28.242 24.9101C28.7232 25.4005 29.5097 25.4005 30.0002 24.9101Z" fill="#24C6DC"/>
</svg>
