<svg width="18" height="18" viewBox="0 0 18 18" fill="none" xmlns="http://www.w3.org/2000/svg">
<g clip-path="url(#clip0)">
<path d="M17.9914 14.2018C18.0295 14.494 17.9405 14.7481 17.7246 14.964L15.1903 17.4793C15.0759 17.6063 14.9267 17.7144 14.7425 17.8032C14.5583 17.8922 14.3773 17.9493 14.1995 17.9747C14.1868 17.9747 14.1486 17.978 14.0851 17.9843C14.0216 17.9906 13.9391 17.9939 13.8374 17.9939C13.596 17.9939 13.2053 17.9526 12.6654 17.87C12.1255 17.7874 11.465 17.5841 10.6838 17.2602C9.90239 16.9363 9.01635 16.4503 8.0255 15.8025C7.03465 15.1547 5.98023 14.2654 4.86232 13.1347C3.97307 12.2582 3.23626 11.4198 2.6519 10.6195C2.06753 9.81911 1.5975 9.07913 1.2418 8.39949C0.886073 7.71985 0.619298 7.10372 0.441448 6.55112C0.263599 5.99852 0.142915 5.52213 0.0793972 5.12197C0.0158794 4.72181 -0.00952766 4.4074 0.00317589 4.17873C0.0158794 3.95007 0.0222312 3.82303 0.0222312 3.79763C0.0476383 3.61978 0.104804 3.43875 0.193729 3.25455C0.282654 3.07035 0.390634 2.92108 0.51767 2.80675L3.05203 0.27239C3.22988 0.0945401 3.43314 0.00561523 3.6618 0.00561523C3.82695 0.00561523 3.97304 0.0532535 4.10007 0.14853C4.22711 0.243807 4.33509 0.361315 4.42401 0.501054L6.46293 4.36929C6.57726 4.57254 6.60902 4.79485 6.55821 5.03622C6.50739 5.27759 6.39941 5.48085 6.23427 5.64599L5.30056 6.5797C5.27515 6.60511 5.25292 6.6464 5.23386 6.70356C5.21481 6.76073 5.20528 6.80837 5.20528 6.84648C5.25609 7.11325 5.37043 7.41814 5.54828 7.76113C5.70072 8.06602 5.93573 8.4376 6.25332 8.87587C6.57091 9.31414 7.02189 9.81908 7.60625 10.3907C8.17791 10.9752 8.68605 11.4293 9.13068 11.7533C9.57521 12.0771 9.94691 12.3154 10.2454 12.4678C10.544 12.6202 10.7726 12.7123 10.9314 12.744L11.1695 12.7917C11.1949 12.7917 11.2363 12.7821 11.2934 12.7631C11.3506 12.744 11.3919 12.7218 11.4173 12.6964L12.5034 11.5912C12.7322 11.3879 12.9989 11.2863 13.3038 11.2863C13.5198 11.2863 13.6912 11.3244 13.8183 11.4006H13.8373L17.5149 13.5729C17.7818 13.7382 17.9406 13.9478 17.9914 14.2018Z" fill="#2F80ED"/>
</g>
<defs>
<clipPath id="clip0">
<rect width="18" height="18" fill="white" transform="translate(0 -0.000244141)"/>
</clipPath>
</defs>
</svg>
