<svg width="18" height="18" viewBox="0 0 18 18" fill="none" xmlns="http://www.w3.org/2000/svg">
<g clip-path="url(#clip0)">
<path d="M15.364 11.6358C14.3837 10.6555 13.217 9.92988 11.9439 9.49061C13.3074 8.55155 14.2031 6.97996 14.2031 5.20288C14.2031 2.33388 11.869 -0.000244141 9 -0.000244141C6.131 -0.000244141 3.79688 2.33388 3.79688 5.20288C3.79688 6.97996 4.69262 8.55155 6.05609 9.49061C4.78308 9.92988 3.61631 10.6555 2.63605 11.6358C0.936176 13.3357 0 15.5958 0 17.9998H1.40625C1.40625 13.8125 4.81279 10.406 9 10.406C13.1872 10.406 16.5938 13.8125 16.5938 17.9998H18C18 15.5958 17.0638 13.3357 15.364 11.6358ZM9 8.99976C6.90641 8.99976 5.20312 7.29651 5.20312 5.20288C5.20312 3.10926 6.90641 1.40601 9 1.40601C11.0936 1.40601 12.7969 3.10926 12.7969 5.20288C12.7969 7.29651 11.0936 8.99976 9 8.99976Z" fill="#2F80ED"/>
</g>
<defs>
<clipPath id="clip0">
<rect width="18" height="18" fill="white" transform="translate(0 -0.000244141)"/>
</clipPath>
</defs>
</svg>
