<svg width="60" height="60" viewBox="0 0 60 60" xmlns="http://www.w3.org/2000/svg">
  <g clip-path="url(#clip0)">
    <path d="M59.1193 12.2701C59.6058 12.2701 60 11.8758 60 11.3895V3.69867C60 1.65926 58.3407 0 56.3013 0H3.69867C1.65926 0 0 1.65926 0 3.69867V43.1508C0 45.1902 1.65926 46.8495 3.69867 46.8495H24.4227V58.2389H22.4854C21.9989 58.2389 21.6047 58.6332 21.6047 59.1196C21.6047 59.6059 21.9989 60.0002 22.4854 60.0002H37.5146C38.0011 60.0002 38.3953 59.6059 38.3953 59.1196C38.3953 58.6332 38.0011 58.2389 37.5146 58.2389H35.5773V46.8495H56.3013C58.3407 46.8495 60 45.1902 60 43.1508V15.499C60 15.0127 59.6058 14.6183 59.1193 14.6183C58.6329 14.6183 58.2387 15.0127 58.2387 15.499V37.5734H1.76121V7.39723H58.2387V11.3895C58.2388 11.8758 58.6329 12.2701 59.1193 12.2701ZM33.8161 58.2388H26.184V46.8493H33.8161V58.2388ZM58.2388 39.3347V43.1508C58.2388 44.2191 57.3698 45.0881 56.3014 45.0881H3.69867C2.63027 45.0881 1.76133 44.2189 1.76133 43.1508V39.3347H58.2388ZM1.76121 5.63602V3.69867C1.76121 2.63039 2.63016 1.76133 3.69855 1.76133H56.3013C57.3697 1.76133 58.2387 2.63051 58.2387 3.69867V5.63602H1.76121Z"/>
    <path d="M31.8785 41.3308H28.1211C27.6347 41.3308 27.2405 41.7251 27.2405 42.2115C27.2405 42.6978 27.6347 43.0921 28.1211 43.0921H31.8785C32.365 43.0921 32.7592 42.6978 32.7592 42.2115C32.7592 41.725 32.365 41.3308 31.8785 41.3308Z"/>
    <path d="M30 4.57944C30.4864 4.57944 30.8807 4.18516 30.8807 3.69878C30.8807 3.2124 30.4864 2.81812 30 2.81812C29.5137 2.81812 29.1194 3.2124 29.1194 3.69878C29.1194 4.18516 29.5137 4.57944 30 4.57944Z"/>
    <path d="M46.908 15.0293C45.3866 15.0293 44.1487 16.2671 44.1487 17.7886C44.1487 18.4856 44.409 19.1224 44.8366 19.6086L37.3957 27.8766C36.9177 27.4798 36.3042 27.2407 35.636 27.2407C34.8785 27.2407 34.1914 27.5476 33.6923 28.0436L27.0963 24.7455C27.1137 24.6207 27.1233 24.4935 27.1233 24.364C27.1233 22.8425 25.8854 21.6047 24.364 21.6047C22.8425 21.6047 21.6047 22.8425 21.6047 24.364C21.6047 24.5238 21.6191 24.6802 21.6453 24.8326L14.4423 30.2348C14.3967 30.2691 14.3559 30.3069 14.319 30.3476C13.9492 30.1631 13.5327 30.0587 13.0921 30.0587C11.5706 30.0587 10.3328 31.2966 10.3328 32.818C10.3328 34.3395 11.5706 35.5773 13.0921 35.5773C14.6135 35.5773 15.8514 34.3395 15.8514 32.818C15.8514 32.3789 15.7478 31.9637 15.5645 31.5949L22.4982 26.3946C22.9898 26.8467 23.6451 27.1233 24.3641 27.1233C25.1216 27.1233 25.8087 26.8164 26.3078 26.3204L32.9038 29.6184C32.8864 29.7432 32.8768 29.8705 32.8768 30C32.8768 31.5214 34.1147 32.7593 35.6361 32.7593C37.1576 32.7593 38.3953 31.5214 38.3953 30C38.3953 29.8146 38.3767 29.6334 38.3415 29.4582L46.4031 20.5009C46.567 20.5314 46.7355 20.548 46.9079 20.548C48.4294 20.548 49.6672 19.3102 49.6672 17.7887C49.6673 16.2671 48.4295 15.0293 46.908 15.0293ZM13.0919 33.8161C12.5416 33.8161 12.0939 33.3684 12.0939 32.818C12.0939 32.2677 12.5415 31.8199 13.0919 31.8199C13.6424 31.8199 14.09 32.2676 14.09 32.818C14.09 33.3683 13.6423 33.8161 13.0919 33.8161ZM24.364 25.3621C23.8137 25.3621 23.3659 24.9144 23.3659 24.364C23.3659 23.8136 23.8135 23.3659 24.364 23.3659C24.9144 23.3659 25.3621 23.8136 25.3621 24.364C25.3621 24.9144 24.9143 25.3621 24.364 25.3621ZM35.636 30.9981C35.0857 30.9981 34.6379 30.5504 34.6379 30C34.6379 29.4496 35.0856 29.0019 35.636 29.0019C36.1864 29.0019 36.6341 29.4496 36.6341 30C36.6341 30.5504 36.1863 30.9981 35.636 30.9981ZM46.908 18.7867C46.3577 18.7867 45.9099 18.339 45.9099 17.7886C45.9099 17.2382 46.3576 16.7905 46.908 16.7905C47.4585 16.7905 47.9061 17.2382 47.9061 17.7886C47.9061 18.339 47.4583 18.7867 46.908 18.7867Z"/>
    <path d="M54.6106 27.64C55.0971 27.64 55.4913 27.2457 55.4913 26.7594V26.1488C55.4913 24.7444 54.4183 23.5859 53.049 23.45V22.4854C53.049 21.9991 52.6547 21.6047 52.1683 21.6047C51.6819 21.6047 51.2876 21.9991 51.2876 22.4854V23.4922C49.8981 23.7616 48.8453 24.9869 48.8453 26.4541C48.8453 28.118 50.1991 29.4717 51.8629 29.4717H52.4735C53.1662 29.4717 53.7297 30.0352 53.7297 30.728C53.7297 31.4208 53.1662 31.9844 52.4735 31.9844H51.5576C51.0332 31.9844 50.6065 31.5577 50.6065 31.0333C50.6065 30.547 50.2123 30.1526 49.7259 30.1526C49.2394 30.1526 48.8452 30.547 48.8452 31.0333C48.8452 32.4377 49.9182 33.5962 51.2875 33.7321V34.6967C51.2875 35.183 51.6817 35.5774 52.1682 35.5774C52.6546 35.5774 53.0489 35.183 53.0489 34.6967V33.6899C54.4385 33.4205 55.4912 32.1952 55.4912 30.728C55.4912 29.0641 54.1375 27.7104 52.4737 27.7104H51.8631C51.1703 27.7104 50.6068 27.1469 50.6068 26.4541C50.6068 25.7614 51.1703 25.1977 51.8631 25.1977H52.779C53.3034 25.1977 53.7301 25.6244 53.7301 26.1488V26.7594C53.7299 27.2457 54.1242 27.64 54.6106 27.64Z"/>
    <path d="M33.9454 15.4286C34.4319 15.4286 34.8261 15.0343 34.8261 14.5479V13.9374C34.8261 12.533 33.7531 11.3745 32.3838 11.2385V10.274C32.3838 9.78765 31.9896 9.39331 31.5031 9.39331C31.0167 9.39331 30.6225 9.78765 30.6225 10.274V11.2807C29.233 11.5501 28.1802 12.7755 28.1802 14.2426C28.1802 15.9066 29.5339 17.2602 31.1977 17.2602H31.8083C32.501 17.2602 33.0645 17.8238 33.0645 18.5166C33.0645 19.2094 32.501 19.773 31.8082 19.773H30.8924C30.3679 19.773 29.9413 19.3463 29.9413 18.8219C29.9413 18.3355 29.547 17.9412 29.0606 17.9412C28.5742 17.9412 28.1799 18.3355 28.1799 18.8219C28.1799 20.2262 29.2529 21.3848 30.6222 21.5207V22.4853C30.6222 22.9716 31.0165 23.3659 31.5029 23.3659C31.9893 23.3659 32.3836 22.9716 32.3836 22.4853V21.4785C33.7732 21.2092 34.8259 19.9838 34.8259 18.5166C34.8259 16.8526 33.4722 15.499 31.8084 15.499H31.1979C30.505 15.499 29.9415 14.9355 29.9415 14.2426C29.9415 13.55 30.505 12.9863 31.1979 12.9863H32.1137C32.6381 12.9863 33.0648 13.413 33.0648 13.9374V14.5479C33.0648 15.0344 33.459 15.4286 33.9454 15.4286Z"/>
    <path d="M10.4618 22.004C10.9482 22.004 11.3425 21.6097 11.3425 21.1234V20.5128C11.3425 19.1084 10.2695 17.9499 8.90016 17.814V16.8494C8.90016 16.3631 8.50594 15.9688 8.01949 15.9688C7.53305 15.9688 7.13883 16.3631 7.13883 16.8494V17.8562C5.7491 18.1256 4.69641 19.351 4.69641 20.8181C4.69641 22.482 6.05016 23.8357 7.71398 23.8357H8.32453C9.01723 23.8357 9.58078 24.3992 9.58078 25.092C9.58078 25.7847 9.01723 26.3484 8.32453 26.3484H7.40871C6.8843 26.3484 6.45762 25.9217 6.45762 25.3973C6.45762 24.911 6.0634 24.5166 5.57695 24.5166C5.09051 24.5166 4.69629 24.911 4.69629 25.3973C4.69629 26.8017 5.76926 27.9602 7.13859 28.0961V29.0607C7.13859 29.547 7.53281 29.9414 8.01926 29.9414C8.5057 29.9414 8.89992 29.547 8.89992 29.0607V28.0539C10.2895 27.7847 11.3422 26.5592 11.3422 25.092C11.3422 23.4281 9.98859 22.0745 8.32477 22.0745H7.71422C7.02141 22.0745 6.45785 21.5109 6.45785 20.8181C6.45785 20.1253 7.02141 19.5617 7.71422 19.5617H8.63004C9.15445 19.5617 9.58113 19.9884 9.58113 20.5128V21.1234C9.58125 21.6097 9.97535 22.004 10.4618 22.004Z"/>
  </g>
</svg>
