<svg width="60" height="60" viewBox="0 0 60 60" xmlns="http://www.w3.org/2000/svg">
  <g clip-path="url(#clip0)">
    <path d="M55.3621 33.3464C54.8757 33.3464 54.4814 33.7408 54.4814 34.2271V34.6968C54.4814 35.1831 54.8757 35.5775 55.3621 35.5775C55.8486 35.5775 56.2428 35.1831 56.2428 34.6968V34.2271C56.2427 33.7407 55.8486 33.3464 55.3621 33.3464Z"/>
    <path d="M55.3621 42.27C54.8757 42.27 54.4814 42.6644 54.4814 43.1507V44.0901C54.4814 44.5764 54.8757 44.9707 55.3621 44.9707C55.8486 44.9707 56.2428 44.5764 56.2428 44.0901V43.1507C56.2427 42.6644 55.8486 42.27 55.3621 42.27Z"/>
    <path d="M55.3621 46.9668C54.8757 46.9668 54.4814 47.3611 54.4814 47.8475V48.7868C54.4814 49.2732 54.8757 49.6675 55.3621 49.6675C55.8486 49.6675 56.2428 49.2732 56.2428 48.7868V47.8475C56.2427 47.361 55.8486 46.9668 55.3621 46.9668Z"/>
    <path d="M55.3621 37.5735C54.8757 37.5735 54.4814 37.9678 54.4814 38.4541V39.3935C54.4814 39.8799 54.8757 40.2742 55.3621 40.2742C55.8486 40.2742 56.2428 39.8799 56.2428 39.3935V38.4541C56.2427 37.9678 55.8486 37.5735 55.3621 37.5735Z"/>
    <path d="M55.3621 51.6633C54.9971 51.6633 54.6839 51.8855 54.5503 52.2019C54.2339 52.3354 54.0117 52.6485 54.0117 53.0137C54.0117 53.5 54.4059 53.8943 54.8924 53.8943H55.3621C55.8485 53.8943 56.2427 53.5 56.2427 53.0137V52.544C56.2426 52.0577 55.8485 51.6633 55.3621 51.6633Z"/>
    <path d="M9.71737 52.1331H8.79546C8.30913 52.1331 7.91479 52.5274 7.91479 53.0137C7.91479 53.5001 8.30913 53.8944 8.79546 53.8944H9.71737C10.2037 53.8944 10.598 53.5001 10.598 53.0137C10.598 52.5273 10.2037 52.1331 9.71737 52.1331Z"/>
    <path d="M28.1561 52.1331H27.2342C26.7479 52.1331 26.3535 52.5274 26.3535 53.0137C26.3535 53.5001 26.7479 53.8944 27.2342 53.8944H28.1561C28.6424 53.8944 29.0368 53.5001 29.0368 53.0137C29.0368 52.5273 28.6424 52.1331 28.1561 52.1331Z"/>
    <path d="M23.5465 52.1331H22.6246C22.1382 52.1331 21.7439 52.5274 21.7439 53.0137C21.7439 53.5001 22.1382 53.8944 22.6246 53.8944H23.5465C24.0328 53.8944 24.4271 53.5001 24.4271 53.0137C24.4271 52.5273 24.0329 52.1331 23.5465 52.1331Z"/>
    <path d="M14.327 52.1331H13.4051C12.9187 52.1331 12.5244 52.5274 12.5244 53.0137C12.5244 53.5001 12.9187 53.8944 13.4051 53.8944H14.327C14.8133 53.8944 15.2076 53.5001 15.2076 53.0137C15.2075 52.5273 14.8133 52.1331 14.327 52.1331Z"/>
    <path d="M18.9369 52.1331H18.0149C17.5286 52.1331 17.1343 52.5274 17.1343 53.0137C17.1343 53.5001 17.5286 53.8944 18.0149 53.8944H18.9369C19.4232 53.8944 19.8175 53.5001 19.8175 53.0137C19.8174 52.5273 19.4232 52.1331 18.9369 52.1331Z"/>
    <path d="M32.766 52.1331H31.844C31.3576 52.1331 30.9634 52.5274 30.9634 53.0137C30.9634 53.5001 31.3576 53.8944 31.844 53.8944H32.766C33.2524 53.8944 33.6466 53.5001 33.6466 53.0137C33.6466 52.5273 33.2523 52.1331 32.766 52.1331Z"/>
    <path d="M51.2047 52.1331H50.2828C49.7963 52.1331 49.4021 52.5274 49.4021 53.0137C49.4021 53.5001 49.7963 53.8944 50.2828 53.8944H51.2047C51.6911 53.8944 52.0853 53.5001 52.0853 53.0137C52.0853 52.5273 51.691 52.1331 51.2047 52.1331Z"/>
    <path d="M46.5949 52.1331H45.6729C45.1865 52.1331 44.7922 52.5274 44.7922 53.0137C44.7922 53.5001 45.1865 53.8944 45.6729 53.8944H46.5949C47.0814 53.8944 47.4756 53.5001 47.4756 53.0137C47.4755 52.5273 47.0814 52.1331 46.5949 52.1331Z"/>
    <path d="M37.3754 52.1331H36.4534C35.967 52.1331 35.5728 52.5274 35.5728 53.0137C35.5728 53.5001 35.967 53.8944 36.4534 53.8944H37.3754C37.8619 53.8944 38.2561 53.5001 38.2561 53.0137C38.2561 52.5273 37.8619 52.1331 37.3754 52.1331Z"/>
    <path d="M41.9852 52.1331H41.0633C40.5768 52.1331 40.1826 52.5274 40.1826 53.0137C40.1826 53.5001 40.5768 53.8944 41.0633 53.8944H41.9852C42.4716 53.8944 42.8659 53.5001 42.8659 53.0137C42.8657 52.5273 42.4716 52.1331 41.9852 52.1331Z"/>
    <path d="M5.44975 52.2019C5.31627 51.8855 5.00314 51.6633 4.63799 51.6633C4.15166 51.6633 3.75732 52.0577 3.75732 52.544V53.0137C3.75732 53.5 4.15166 53.8943 4.63799 53.8943H5.10768C5.594 53.8943 5.98834 53.5 5.98834 53.0137C5.98834 52.6485 5.76615 52.3354 5.44975 52.2019Z"/>
    <path d="M4.63799 37.5735C4.15166 37.5735 3.75732 37.9678 3.75732 38.4541V39.3935C3.75732 39.8799 4.15166 40.2742 4.63799 40.2742C5.12432 40.2742 5.51865 39.8799 5.51865 39.3935V38.4541C5.51865 37.9678 5.12432 37.5735 4.63799 37.5735Z"/>
    <path d="M4.63799 46.9668C4.15166 46.9668 3.75732 47.3611 3.75732 47.8475V48.7868C3.75732 49.2732 4.15166 49.6675 4.63799 49.6675C5.12432 49.6675 5.51865 49.2732 5.51865 48.7868V47.8475C5.51865 47.361 5.12432 46.9668 4.63799 46.9668Z"/>
    <path d="M4.63799 42.27C4.15166 42.27 3.75732 42.6644 3.75732 43.1507V44.0901C3.75732 44.5764 4.15166 44.9707 4.63799 44.9707C5.12432 44.9707 5.51865 44.5764 5.51865 44.0901V43.1507C5.51865 42.6644 5.12432 42.27 4.63799 42.27Z"/>
    <path d="M4.63799 33.3464C4.15166 33.3464 3.75732 33.7408 3.75732 34.2271V34.6968C3.75732 35.1831 4.15166 35.5775 4.63799 35.5775C5.12432 35.5775 5.51865 35.1831 5.51865 34.6968V34.2271C5.51865 33.7407 5.12432 33.3464 4.63799 33.3464Z"/>
    <path d="M59.1193 11.7418H38.3953V6.98632C38.3953 4.42894 36.3146 2.34839 33.7574 2.34839H26.2427C23.6854 2.34839 21.6048 4.42905 21.6048 6.98632V11.7417H0.880664C0.394336 11.7417 0 12.136 0 12.6223V56.7711C0 57.2574 0.394336 57.6517 0.880664 57.6517H59.1195C59.6059 57.6517 60.0001 57.2574 60.0001 56.7711V12.6223C60 12.136 59.6058 11.7418 59.1193 11.7418ZM23.3659 6.98632C23.3659 5.40019 24.6565 4.1096 26.2426 4.1096H33.7573C35.3435 4.1096 36.634 5.40019 36.634 6.98632V11.7417H23.3659V6.98632ZM58.2388 23.8944C58.2388 27.5524 55.2627 30.5285 51.6047 30.5285H46.9471C46.4606 30.5285 46.0664 30.9228 46.0664 31.4091C46.0664 31.8955 46.4606 32.2898 46.9471 32.2898H51.6047C54.3004 32.2898 56.7016 31.0113 58.2388 29.0303V55.8907H1.76121V29.0303C3.29836 31.0113 5.69965 32.2897 8.39531 32.2897H25.3621V35.1664C25.3621 36.6878 26.5999 37.9257 28.1214 37.9257H31.8788C33.4002 37.9257 34.638 36.6878 34.638 35.1664V32.2897H42.7202C43.2067 32.2897 43.6009 31.8953 43.6009 31.409C43.6009 30.9227 43.2067 30.5283 42.7202 30.5283H8.39531C4.7373 30.5283 1.76121 27.5523 1.76121 23.8942V13.5029H3.7602C3.75891 13.5223 3.75727 13.5418 3.75727 13.5616V14.0313C3.75727 14.5176 4.1516 14.9119 4.63793 14.9119C5.12426 14.9119 5.51859 14.5176 5.51859 14.0313V13.5616C5.51859 13.5418 5.51695 13.5223 5.51566 13.5029H54.4843C54.483 13.5223 54.4814 13.5418 54.4814 13.5616V14.0313C54.4814 14.5176 54.8756 14.9119 55.3621 14.9119C55.8485 14.9119 56.2427 14.5176 56.2427 14.0313V13.5616C56.2427 13.5418 56.2411 13.5223 56.2398 13.5029H58.2388V23.8944ZM27.1233 35.1664V32.2897H32.8767V35.1664C32.8767 35.7167 32.4291 36.1645 31.8786 36.1645H28.1213C27.5711 36.1645 27.1233 35.7167 27.1233 35.1664Z"/>
    <path d="M7.2308 26.5246C7.01061 26.4267 6.80272 26.3007 6.61287 26.1503C6.2319 25.8485 5.67784 25.9124 5.37573 26.2937C5.07373 26.6749 5.13784 27.2288 5.51905 27.5308C5.82479 27.773 6.15994 27.9759 6.51502 28.134C6.97733 28.3396 7.53139 28.1014 7.70213 27.6263C7.85576 27.198 7.64623 26.7094 7.2308 26.5246Z"/>
    <path d="M49.3973 26.771H48.4512C47.9648 26.771 47.5706 27.1653 47.5706 27.6517C47.5706 28.138 47.9648 28.5323 48.4512 28.5323H49.3973C49.8837 28.5323 50.2779 28.138 50.2779 27.6517C50.2779 27.1653 49.8837 26.771 49.3973 26.771Z"/>
    <path d="M4.63799 21.6724C4.15166 21.6724 3.75732 22.0667 3.75732 22.553V23.4991C3.75732 23.9854 4.15166 24.3797 4.63799 24.3797C5.12432 24.3797 5.51865 23.9854 5.51865 23.4991V22.553C5.51865 22.0667 5.12432 21.6724 4.63799 21.6724Z"/>
    <path d="M4.63799 16.9424C4.15166 16.9424 3.75732 17.3367 3.75732 17.823V18.7691C3.75732 19.2554 4.15166 19.6498 4.63799 19.6498C5.12432 19.6498 5.51865 19.2554 5.51865 18.7691V17.823C5.51865 17.3367 5.12432 16.9424 4.63799 16.9424Z"/>
    <path d="M55.3621 16.9346C54.8757 16.9346 54.4814 17.3289 54.4814 17.8152V18.7613C54.4814 19.2476 54.8757 19.642 55.3621 19.642C55.8486 19.642 56.2428 19.2476 56.2428 18.7613V17.8152C56.2427 17.3289 55.8486 16.9346 55.3621 16.9346Z"/>
    <path d="M55.3621 21.6646C54.8757 21.6646 54.4814 22.0589 54.4814 22.5452V23.4913C54.4814 23.9776 54.8757 24.3719 55.3621 24.3719C55.8486 24.3719 56.2428 23.9776 56.2428 23.4913V22.5452C56.2427 22.0589 55.8486 21.6646 55.3621 21.6646Z"/>
    <path d="M54.6294 26.2874C54.3264 25.9068 53.7726 25.8439 53.3918 26.1465C53.2024 26.2975 52.9946 26.4238 52.7749 26.5221C52.4142 26.6836 52.2006 27.0794 52.2654 27.4696C52.335 27.8897 52.7092 28.2068 53.135 28.2068C53.2552 28.2068 53.3774 28.1821 53.4943 28.1298C53.849 27.971 54.1833 27.7676 54.4886 27.5249C54.8691 27.2221 54.9323 26.668 54.6294 26.2874Z"/>
    <path d="M44.6671 26.771H43.721C43.2345 26.771 42.8403 27.1653 42.8403 27.6517C42.8403 28.138 43.2345 28.5323 43.721 28.5323H44.6671C45.1535 28.5323 45.5477 28.138 45.5477 27.6517C45.5477 27.1653 45.1536 26.771 44.6671 26.771Z"/>
    <path d="M30.4771 26.771H29.5311C29.0447 26.771 28.6504 27.1653 28.6504 27.6517C28.6504 28.138 29.0447 28.5323 29.5311 28.5323H30.4771C30.9635 28.5323 31.3578 28.138 31.3578 27.6517C31.3578 27.1653 30.9635 26.771 30.4771 26.771Z"/>
    <path d="M35.2073 26.771H34.2613C33.7748 26.771 33.3806 27.1653 33.3806 27.6517C33.3806 28.138 33.7748 28.5323 34.2613 28.5323H35.2073C35.6938 28.5323 36.088 28.138 36.088 27.6517C36.0879 27.1653 35.6937 26.771 35.2073 26.771Z"/>
    <path d="M39.9373 26.771H38.9913C38.5048 26.771 38.1106 27.1653 38.1106 27.6517C38.1106 28.138 38.5048 28.5323 38.9913 28.5323H39.9373C40.4238 28.5323 40.818 28.138 40.818 27.6517C40.8179 27.1653 40.4236 26.771 39.9373 26.771Z"/>
    <path d="M11.5574 26.771H10.6114C10.125 26.771 9.73071 27.1653 9.73071 27.6517C9.73071 28.138 10.125 28.5323 10.6114 28.5323H11.5574C12.0438 28.5323 12.4381 28.138 12.4381 27.6517C12.438 27.1653 12.0438 26.771 11.5574 26.771Z"/>
    <path d="M16.2874 26.771H15.3414C14.855 26.771 14.4607 27.1653 14.4607 27.6517C14.4607 28.138 14.855 28.5323 15.3414 28.5323H16.2874C16.7737 28.5323 17.1681 28.138 17.1681 27.6517C17.1681 27.1653 16.7739 26.771 16.2874 26.771Z"/>
    <path d="M25.7471 26.771H24.8011C24.3147 26.771 23.9204 27.1653 23.9204 27.6517C23.9204 28.138 24.3147 28.5323 24.8011 28.5323H25.7471C26.2335 28.5323 26.6278 28.138 26.6278 27.6517C26.6278 27.1653 26.2335 26.771 25.7471 26.771Z"/>
    <path d="M21.0174 26.771H20.0713C19.585 26.771 19.1907 27.1653 19.1907 27.6517C19.1907 28.138 19.585 28.5323 20.0713 28.5323H21.0174C21.5037 28.5323 21.8981 28.138 21.8981 27.6517C21.8981 27.1653 21.5037 26.771 21.0174 26.771Z"/>
    <path d="M30 35.1075C30.4864 35.1075 30.8807 34.7132 30.8807 34.2269C30.8807 33.7405 30.4864 33.3462 30 33.3462C29.5137 33.3462 29.1194 33.7405 29.1194 34.2269C29.1194 34.7132 29.5137 35.1075 30 35.1075Z"/>
  </g>
</svg>
