<svg width="60" height="60" viewBox="0 0 60 60" xmlns="http://www.w3.org/2000/svg">
  <g clip-path="url(#clip0)">
    <path d="M59.1193 6.57549H41.5102L30.4437 0.120215C30.1693 -0.0397461 29.8304 -0.0397461 29.5562 0.120215L18.4898 6.57549H0.880664C0.394336 6.57549 0 6.96983 0 7.45615V11.2135C0 11.6999 0.394336 12.0942 0.880664 12.0942H2.81801V48.787C2.81801 49.2733 3.21234 49.6677 3.69867 49.6677H29.1195V58.2391H26.2427C25.7564 58.2391 25.3621 58.6335 25.3621 59.1198C25.3621 59.6061 25.7564 60.0005 26.2427 60.0005H33.7574C34.2438 60.0005 34.638 59.6061 34.638 59.1198C34.638 58.6335 34.2438 58.2391 33.7574 58.2391H30.8807V49.6677H56.3014C56.7879 49.6677 57.1821 49.2733 57.1821 48.787V12.0941H59.1195C59.6059 12.0941 60.0001 11.6997 60.0001 11.2134V7.45615C60 6.96983 59.6058 6.57549 59.1193 6.57549ZM30 1.90029L38.0147 6.57549H21.9853L30 1.90029ZM58.2388 10.3329H49.2564C48.7699 10.3329 48.3757 10.7272 48.3757 11.2135C48.3757 11.6999 48.7699 12.0942 49.2564 12.0942H55.4208V47.9064H4.57922V12.0941H45.1859C45.6723 12.0941 46.0665 11.6997 46.0665 11.2134C46.0665 10.7271 45.6723 10.3328 45.1859 10.3328H1.76121V8.33682H58.2387V10.3329H58.2388Z"/>
    <path d="M18.7281 14.0901C14.0989 14.0901 10.3328 17.8563 10.3328 22.4854C10.3328 27.1145 14.0989 30.8807 18.7281 30.8807C23.3572 30.8807 27.1234 27.1145 27.1234 22.4854C27.1234 17.8563 23.3572 14.0901 18.7281 14.0901ZM18.7281 29.1194C15.0701 29.1194 12.094 26.1434 12.094 22.4853C12.094 18.8272 15.0701 15.8512 18.7281 15.8512C22.3861 15.8512 25.3622 18.8273 25.3622 22.4853C25.3622 26.1433 22.3861 29.1194 18.7281 29.1194Z"/>
    <path d="M46.3886 38.9237L49.4663 35.8461C50.359 34.9534 50.359 33.5009 49.4663 32.6081C48.5837 31.7254 47.1107 31.7254 46.2281 32.6081L43.1506 35.6857L40.073 32.6081C39.1904 31.7254 37.7174 31.7254 36.8348 32.6081C35.9421 33.5009 35.9421 34.9534 36.8348 35.8461L39.9125 38.9237L36.8348 42.0013C35.9421 42.894 35.9421 44.3466 36.8347 45.2392C37.7172 46.1218 39.1906 46.1219 40.073 45.2393L43.1506 42.1617L46.228 45.2392C47.1104 46.1218 48.5838 46.1219 49.4663 45.2393C50.359 44.3465 50.359 42.894 49.4663 42.0013L46.3886 38.9237ZM48.2436 43.9699C48.0449 44.1954 47.6863 44.2069 47.4737 43.9941L43.7733 40.2936C43.4339 39.9544 42.8672 39.9544 42.5278 40.2936L38.8273 43.9942C38.6147 44.2069 38.256 44.1951 38.0573 43.9698C37.8756 43.7637 37.8858 43.4412 38.0802 43.2469L41.7806 39.5464C42.1246 39.2025 42.1246 38.6449 41.7806 38.3011L38.0802 34.6007C37.8859 34.4064 37.8756 34.0839 38.0573 33.8777C38.2561 33.6521 38.6147 33.6407 38.8274 33.8535L42.5278 37.5539C42.8719 37.8978 43.4293 37.8978 43.7733 37.5539L47.4737 33.8535C47.6864 33.6408 48.045 33.6524 48.2438 33.8778C48.4254 34.084 48.4152 34.4064 48.2209 34.6007L44.5205 38.3011C44.1765 38.645 44.1765 39.2026 44.5205 39.5464L48.2209 43.2469C48.4153 43.4413 48.4254 43.7637 48.2436 43.9699Z"/>
    <path d="M50.2762 21.7978L45.5796 18.0404C45.1999 17.7366 44.6457 17.7982 44.3419 18.1779C44.038 18.5576 44.0996 19.1119 44.4793 19.4157L47.2157 21.6047H35.6361C33.0787 21.6047 30.9982 23.6854 30.9982 26.2426V35.636C30.9982 37.2222 29.7076 38.5127 28.1215 38.5127H11.2134C10.7271 38.5127 10.3328 38.9071 10.3328 39.3934C10.3328 39.8797 10.7271 40.2741 11.2134 40.2741H28.1215C30.6789 40.2741 32.7594 38.1934 32.7594 35.6361V26.2427C32.7594 24.6566 34.0499 23.366 35.6361 23.366H47.2157L44.4792 25.5551C44.1344 25.8309 44.0481 26.337 44.2835 26.7109C44.5597 27.1495 45.1741 27.2548 45.5796 26.9304L50.2762 23.173C50.7099 22.826 50.7099 22.145 50.2762 21.7978Z"/>
  </g>
</svg>
