<svg width="40" height="40" viewBox="0 0 40 40" mlns="http://www.w3.org/2000/svg">
  <g clip-path="url(#clip0)">
    <path d="M39.4856 2.72098C39.385 2.60153 39.241 2.52692 39.0853 2.51364L30.38 1.77012L30.2222 0.515594C30.1816 0.192859 29.8864 -0.0358904 29.5644 0.00465642L21.4889 1.01997C21.4571 1.01169 21.4245 1.00544 21.3906 1.00255L10.2909 0.054422C9.97128 0.026297 9.68112 0.272078 9.65393 0.591062L9.48847 2.52856L0.890886 3.6095C0.572761 3.6495 0.340027 3.94895 0.379949 4.26731L4.76854 39.1742C4.78846 39.3334 4.75432 39.4864 4.8194 39.6403C4.91065 39.856 5.12784 40 5.36214 40H34.2613C34.5867 40 34.8503 39.7364 34.8503 39.411V38.6439L35.991 38.7414C36.3106 38.7691 36.6007 38.5239 36.6279 38.2047L39.6219 3.15075C39.6353 2.99505 39.5863 2.84051 39.4856 2.72098ZM4.77315 29.7674L1.62229 4.70473L4.77315 4.30864V29.7674V29.7674ZM10.7775 1.27825L15.9322 1.71848L10.6836 2.37841L10.7775 1.27825ZM29.127 1.24692L29.4279 3.64044H10.088L29.127 1.24692ZM35.5044 37.5175L34.8503 37.4617V20.2496C34.8503 19.9243 34.5867 19.6606 34.2613 19.6606C33.9359 19.6606 33.6723 19.9242 33.6723 20.2496V38.822H5.95112V4.8184H33.6724V17.5011C33.6724 17.8264 33.936 18.09 34.2614 18.09C34.5867 18.09 34.8503 17.8264 34.8503 17.5011V4.22942C34.8503 3.90411 34.5867 3.64044 34.2614 3.64044H30.6152L30.5303 2.9652L38.3982 3.63723L35.5044 37.5175Z"/>
    <path d="M31.1204 6.78174H27.9791C27.7821 6.78174 27.5982 6.8801 27.4891 7.044L26.156 9.04369C24.7211 8.0158 22.9643 7.40994 21.0685 7.40994C20.7432 7.40994 20.4795 7.67354 20.4795 7.99893V16.1661C20.4795 16.4914 20.7431 16.7551 21.0685 16.7551H29.2357C29.5611 16.7551 29.8246 16.4915 29.8246 16.1661C29.8246 13.6585 28.7648 11.3942 27.07 9.79635L28.2944 7.95971H31.1204C31.4457 7.95971 31.7094 7.69611 31.7094 7.37072C31.7094 7.04533 31.4457 6.78174 31.1204 6.78174ZM28.624 15.5771H21.6575V8.61057C23.0858 8.72088 24.4036 9.23025 25.5017 10.0252L24.9761 10.8135C24.812 11.0596 24.8601 11.4005 25.0868 11.5909C25.3523 11.8138 25.7641 11.755 25.9562 11.467L26.406 10.7923C27.6582 12.0362 28.48 13.7131 28.624 15.5771Z"/>
    <path d="M31.1204 26.2571H25.7927L24.8539 24.7552C26.3746 23.1794 27.3117 21.0366 27.3117 18.679C27.3117 18.3536 27.0481 18.09 26.7227 18.09H19.1445V10.5118C19.1445 10.1865 18.8808 9.92285 18.5555 9.92285C13.7274 9.92285 9.79932 13.8509 9.79932 18.679C9.79932 23.5071 13.7274 27.4352 18.5555 27.4352C20.5963 27.4352 22.4762 26.7333 23.9667 25.5584L24.9667 27.1584C25.0744 27.3306 25.2631 27.4352 25.4662 27.4352H31.1204C31.4457 27.4352 31.7094 27.1716 31.7094 26.8462C31.7094 26.5208 31.4457 26.2571 31.1204 26.2571ZM22.8246 21.5081C22.6522 21.2321 22.2887 21.1483 22.0129 21.3207C21.7371 21.4931 21.6531 21.8565 21.8256 22.1324L23.3384 24.5529C22.033 25.6178 20.3676 26.2573 18.5556 26.2573C14.377 26.2573 10.9774 22.8577 10.9774 18.6791C10.9774 14.6986 14.0621 11.4251 17.9666 11.1236V18.6791C17.9666 19.0044 18.2303 19.2681 18.5556 19.2681H26.1111C25.9796 20.9713 25.2824 22.5184 24.2078 23.7215L22.8246 21.5081Z"/>
    <path d="M13.5295 29.3984H8.50354C8.1783 29.3984 7.91455 29.662 7.91455 29.9874C7.91455 30.3128 8.17822 30.5764 8.50354 30.5764H13.5295C13.8548 30.5764 14.1185 30.3128 14.1185 29.9874C14.1185 29.662 13.8548 29.3984 13.5295 29.3984Z"/>
    <path d="M21.0685 29.3984H16.0426C15.7173 29.3984 15.4536 29.662 15.4536 29.9874C15.4536 30.3128 15.7173 30.5764 16.0426 30.5764H21.0685C21.3938 30.5764 21.6575 30.3128 21.6575 29.9874C21.6575 29.662 21.3938 29.3984 21.0685 29.3984Z"/>
    <path d="M16.6707 32.5398H8.50354C8.1783 32.5398 7.91455 32.8034 7.91455 33.1288C7.91455 33.4542 8.17822 33.7178 8.50354 33.7178H16.6707C16.996 33.7178 17.2597 33.4542 17.2597 33.1288C17.2597 32.8034 16.996 32.5398 16.6707 32.5398Z"/>
    <path d="M21.0685 32.5398H19.1837C18.8585 32.5398 18.5947 32.8034 18.5947 33.1288C18.5947 33.4542 18.8584 33.7178 19.1837 33.7178H21.0685C21.3938 33.7178 21.6575 33.4542 21.6575 33.1288C21.6574 32.8034 21.3938 32.5398 21.0685 32.5398Z"/>
    <path d="M11.0165 35.6809H8.50354C8.1783 35.6809 7.91455 35.9445 7.91455 36.2699C7.91455 36.5953 8.17822 36.8589 8.50354 36.8589H11.0165C11.3418 36.8589 11.6055 36.5953 11.6055 36.2699C11.6055 35.9445 11.3418 35.6809 11.0165 35.6809Z"/>
    <path d="M21.0683 35.6809H13.5294C13.2042 35.6809 12.9404 35.9445 12.9404 36.2699C12.9404 36.5953 13.2041 36.8589 13.5294 36.8589H21.0683C21.3936 36.8589 21.6573 36.5953 21.6573 36.2699C21.6573 35.9445 21.3936 35.6809 21.0683 35.6809Z"/>
  </g>
</svg>
