<svg width="40" height="40" viewBox="0 0 40 40" xmlns="http://www.w3.org/2000/svg">
  <g clip-path="url(#clip0)">
    <path d="M27.4311 22.5531L22.0004 19.2162C21.9343 19.1755 21.8582 19.1479 21.7814 19.1359L20.0811 18.8359C19.7666 18.7802 19.4577 18.9967 19.4022 19.3112C19.3468 19.6257 19.5629 19.9346 19.8775 19.9901L21.4819 20.2732L26.8176 23.5517C27.0781 23.7118 27.4354 23.6341 27.6083 23.3825C27.7937 23.1125 27.71 22.7246 27.4311 22.5531Z"/>
    <path d="M39.8059 22.7408C39.5848 22.5043 39.214 22.4918 38.9775 22.7128L36.6018 24.9331L25.716 14.1923L39.7784 1.01353C40.0145 0.792205 40.0265 0.421345 39.8052 0.185252C39.584 -0.0508422 39.2131 -0.0628734 38.977 0.158377L24.4699 13.7538C24.2307 13.978 24.2257 14.3683 24.4591 14.5986L25.422 15.5485L25.1146 15.8199L18.6786 15.2657C18.5793 15.2573 18.4761 15.2744 18.3855 15.3163L13.286 17.6388C13.2712 17.6349 13.2563 17.6312 13.2409 17.6285L10.3077 17.1108L10.5448 16.5045C10.6621 16.2046 10.5156 15.8664 10.2167 15.7469L0.840475 11.9964C0.53985 11.876 0.198912 12.0224 0.0787558 12.3229C-0.0414786 12.6234 0.104693 12.9645 0.40524 13.0846L9.24141 16.6192L4.03422 29.9261L0.818443 28.7871C0.513287 28.6792 0.178443 28.8388 0.0703964 29.1439C-0.0376505 29.449 0.122115 29.7839 0.427193 29.892L4.17766 31.2203C4.47204 31.3246 4.80532 31.172 4.91899 30.8814L5.78922 28.6574L8.06946 29.9353L7.81797 30.3429C7.1054 31.4978 7.46516 33.0172 8.62016 33.7299C9.23094 34.1067 9.98915 34.1961 10.6716 33.9752C10.7811 34.6864 11.1991 35.3211 11.812 35.6992C12.4227 36.0761 13.1809 36.1655 13.8634 35.9446C13.973 36.6558 14.3908 37.2904 15.0037 37.6686C15.6163 38.0467 16.3706 38.1357 17.0553 37.9146C17.165 38.6256 17.5827 39.2599 18.1955 39.638C19.086 40.1874 20.2648 40.1053 21.0675 39.4325C21.2698 39.2629 21.444 39.0605 21.5826 38.8358L21.9824 38.188L22.3115 38.3902C23.2032 38.9381 24.3816 38.8537 25.1831 38.1794C25.3852 38.0094 25.5589 37.8067 25.6971 37.5817C25.9718 37.1346 26.0855 36.6335 26.0555 36.1457C26.2416 36.1905 26.432 36.2146 26.6242 36.2146C27.4753 36.2146 28.2804 35.7657 28.7258 35.0409C28.9941 34.6042 29.1166 34.1063 29.0856 33.6051C29.2712 33.6496 29.4613 33.6735 29.6528 33.6735C30.5039 33.6735 31.3091 33.2247 31.7544 32.4999C32.0229 32.0628 32.1454 31.5646 32.1141 31.0631C32.3017 31.1078 32.4923 31.1311 32.682 31.1311C33.5096 31.1311 34.3189 30.7144 34.7831 29.959C35.4935 28.8027 35.1309 27.284 33.9745 26.5735L33.573 26.3268L34.9198 24.9196L36.1795 26.1626C36.4005 26.3805 36.7646 26.3853 36.9913 26.1736L39.7781 23.5692C40.0144 23.3481 40.0269 22.9773 39.8059 22.7408ZM11.0098 32.3122C10.6364 32.9171 9.84055 33.1056 9.23555 32.7324C8.63055 32.3592 8.44212 31.5633 8.81532 30.9583L12.0977 25.6387C12.464 25.0449 13.2501 24.8508 13.8503 25.2054C14.4714 25.5726 14.6428 26.4241 14.2699 27.0285L11.0098 32.3122ZM14.2014 34.2816C13.8282 34.8865 13.0323 35.075 12.4273 34.7018C11.8297 34.333 11.6377 33.5263 12.0071 32.9277L14.6329 28.672C14.9992 28.0783 15.7853 27.8841 16.3856 28.2387C17.0066 28.6059 17.1781 29.4574 16.8051 30.0618L14.2014 34.2816ZM17.3934 36.251C17.2125 36.544 16.9283 36.7492 16.5933 36.8285C16.2581 36.908 15.9122 36.852 15.6191 36.6712C15.0216 36.3024 14.8296 35.4956 15.199 34.8971L17.1684 31.7053C17.5347 31.1115 18.3209 30.9174 18.921 31.272C19.5421 31.6392 19.7135 32.4907 19.3406 33.0951L17.3934 36.251ZM21.8759 36.1285L20.5852 38.2204C20.2163 38.8181 19.4096 39.0099 18.8109 38.6406C18.2134 38.2718 18.0215 37.4649 18.3908 36.8664L19.7037 34.7386C20.07 34.145 20.8562 33.9506 21.4563 34.3054C22.0774 34.6725 22.2488 35.5241 21.8759 36.1285ZM32.5513 25.699L29.6464 23.9141C29.377 23.7485 29.0059 23.8372 28.8404 24.1066C28.6748 24.376 28.7635 24.7471 29.0329 24.9126L33.3608 27.5719C33.9664 27.9441 34.1564 28.7396 33.7843 29.3453C33.4121 29.9509 32.6166 30.1409 32.0109 29.7688L27.3692 26.9166C27.0935 26.7471 26.7326 26.8334 26.5632 27.1091C26.3938 27.3848 26.48 27.7457 26.7557 27.9151L30.3323 30.1128C30.9306 30.4804 31.124 31.2869 30.7558 31.8861C30.3881 32.4845 29.5816 32.6778 28.9824 32.3096L25.7412 30.318C25.4654 30.1485 25.1045 30.2348 24.9352 30.5105C24.7658 30.7862 24.852 31.1471 25.1277 31.3165L27.3038 32.6536C27.902 33.0214 28.0955 33.8277 27.7273 34.427C27.3596 35.0253 26.5531 35.2187 25.9539 34.8505C25.9539 34.8505 24.0402 33.6757 24.0223 33.6671C23.7547 33.5379 23.4275 33.6299 23.2688 33.8883C23.0994 34.164 23.1856 34.5249 23.4613 34.6943L24.2752 35.1945C24.8809 35.5667 25.0708 36.3621 24.6987 36.9678C24.331 37.5662 23.5245 37.7595 22.9253 37.3914L22.5981 37.1903L22.8737 36.7436C23.2259 36.1727 23.3352 35.4696 23.1735 34.8146C23.014 34.1682 22.616 33.6289 22.0531 33.2962C21.6139 33.0367 21.1226 32.9315 20.6441 32.9638C20.734 32.5778 20.7345 32.1711 20.6382 31.7812C20.4787 31.1348 20.0807 30.5956 19.5178 30.2628C19.0786 30.0032 18.5873 29.8981 18.1088 29.9303C18.3505 28.8922 17.9056 27.7753 16.9825 27.2295C16.5433 26.9699 16.052 26.8648 15.5735 26.897C15.8152 25.8589 15.3703 24.7419 14.4472 24.1961C13.3012 23.5187 11.8 23.8897 11.1008 25.0228L8.68594 28.9366L6.22047 27.5555L9.87188 18.2241L11.86 18.5749C11.2945 19.2773 11.1356 20.2661 11.534 21.1412C11.9463 22.0465 12.8421 22.5822 13.7776 22.5821C14.1183 22.5821 14.4643 22.511 14.7941 22.3609L18.2259 20.7978C18.5166 20.6654 18.6488 20.3122 18.5163 20.0216C18.384 19.731 18.0308 19.5987 17.7402 19.7312L14.3082 21.2942C13.6614 21.5889 12.8952 21.3023 12.6006 20.6553C12.3059 20.0084 12.5925 19.2424 13.2395 18.9477L18.7312 16.4465L25.2638 17.0091C25.2806 17.0106 25.2974 17.0113 25.3141 17.0113C25.4563 17.0113 25.5944 16.9595 25.702 16.8646L26.2581 16.3736L34.0851 24.0962L32.5513 25.699Z"/>
  </g>
</svg>
