<svg width="40" height="40" viewBox="0 0 40 40" xmlns="http://www.w3.org/2000/svg">
<g clip-path="url(#clip0)">
<path d="M39.412 0H16.3983C16.244 0 16.0921 0.0629687 15.9831 0.172031L8.93832 7.2168C8.82918 7.32586 8.76629 7.47781 8.76629 7.63203V10.6457H0.586211C0.261992 10.6457 -0.000898437 10.9086 -0.000898437 11.2328V19.4128C-0.000898437 19.7371 0.261992 20 0.586211 20C0.91043 20 1.17332 19.7371 1.17332 19.4129V11.8199H18.7858V34.4423H1.17324V22.2309C1.17324 21.9067 0.910352 21.6438 0.586133 21.6438C0.261914 21.6438 -0.000976562 21.9066 -0.000976562 22.2309V35.0294C-0.000976562 35.3536 0.261914 35.6165 0.586133 35.6165H8.76621V39.413C8.76621 39.7372 9.0291 40.0001 9.35332 40.0001H39.412C39.7362 40.0001 39.9991 39.7372 39.9991 39.413V0.587109C39.9991 0.262891 39.7362 0 39.412 0ZM15.8112 2.00438V7.045H10.7706L15.8112 2.00438ZM38.825 38.8259H9.94043V35.6165H19.3729C19.6971 35.6165 19.96 35.3536 19.96 35.0294V11.2329C19.96 10.9087 19.6971 10.6458 19.3729 10.6458H9.94043V8.21914H16.3983C16.7225 8.21914 16.9854 7.95625 16.9854 7.63203V1.17414H38.825V38.8259Z"/>
<path d="M34.0899 13.6988C34.9316 13.6988 35.6163 13.014 35.6163 12.1724V11.2331C35.6163 9.03653 33.978 7.21559 31.859 6.92817V5.9102C31.859 5.06856 31.1742 4.38379 30.3326 4.38379C29.4909 4.38379 28.8062 5.06856 28.8062 5.9102V7.0059C26.6307 7.49114 25.0488 9.42512 25.0488 11.7027C25.0488 14.3572 27.2084 16.5168 29.8629 16.5168H30.8022C31.7734 16.5168 32.5634 17.3069 32.5634 18.278C32.5634 19.2492 31.7734 20.0393 30.8022 20.0393H29.3932C28.681 20.0393 28.1016 19.4598 28.1016 18.7477C28.1016 17.9061 27.4169 17.2213 26.5752 17.2213C25.7336 17.2213 25.0488 17.9061 25.0488 18.7477C25.0488 20.9443 26.6872 22.7652 28.8062 23.0526V24.0706C28.8062 24.9123 29.4909 25.597 30.3326 25.597C31.1742 25.597 31.859 24.9123 31.859 24.0706V22.9749C34.0345 22.4897 35.6163 20.5557 35.6163 18.2781C35.6163 15.6236 33.4567 13.464 30.8023 13.464H29.863C28.8918 13.464 28.1017 12.674 28.1017 11.7028C28.1017 10.7316 28.8918 9.94153 29.863 9.94153H31.272C31.9841 9.94153 32.5635 10.521 32.5635 11.2331V12.1724C32.5635 13.014 33.2483 13.6988 34.0899 13.6988ZM31.272 8.76731H29.863C28.2443 8.76731 26.9276 10.0841 26.9276 11.7027C26.9276 13.3214 28.2444 14.6381 29.863 14.6381H30.8023C32.8093 14.6381 34.4422 16.271 34.4422 18.278C34.4422 20.1351 33.0514 21.6899 31.2071 21.8948C30.9098 21.9279 30.6848 22.1791 30.6848 22.4783V24.0706C30.6848 24.2648 30.5268 24.4229 30.3326 24.4229C30.1384 24.4229 29.9803 24.2648 29.9803 24.0706V22.5051C29.9803 22.1808 29.7174 21.9179 29.3932 21.9179C27.6451 21.9179 26.223 20.4958 26.223 18.7477C26.223 18.5535 26.381 18.3954 26.5752 18.3954C26.7695 18.3954 26.9275 18.5535 26.9275 18.7477C26.9275 20.1073 28.0337 21.2135 29.3933 21.2135H30.8023C32.4209 21.2135 33.7377 19.8967 33.7377 18.2781C33.7377 16.6594 32.4209 15.3427 30.8023 15.3427H29.863C27.8559 15.3427 26.223 13.7098 26.223 11.7028C26.223 9.84575 27.6138 8.2909 29.4581 8.08598C29.7554 8.05293 29.9804 7.80168 29.9804 7.50246V5.9102C29.9804 5.71598 30.1384 5.55793 30.3327 5.55793C30.5269 5.55793 30.6849 5.71598 30.6849 5.9102V7.47575C30.6849 7.79996 30.9478 8.06286 31.272 8.06286C33.0202 8.06286 34.4423 9.48505 34.4423 11.2331V12.1724C34.4423 12.3666 34.2842 12.5247 34.09 12.5247C33.8958 12.5247 33.7377 12.3666 33.7377 12.1724V11.2331C33.7377 9.87348 32.6316 8.76731 31.272 8.76731Z"/>
<path d="M27.5147 28.1802H23.1311C22.8068 28.1802 22.5439 28.4431 22.5439 28.7673C22.5439 29.0915 22.8068 29.3544 23.1311 29.3544H27.5147C27.8389 29.3544 28.1018 29.0915 28.1018 28.7673C28.1018 28.4431 27.8389 28.1802 27.5147 28.1802Z"/>
<path d="M36.282 28.1802H30.0197C29.6955 28.1802 29.4326 28.4431 29.4326 28.7673C29.4326 29.0915 29.6955 29.3544 30.0197 29.3544H36.282C36.6062 29.3544 36.8691 29.0915 36.8691 28.7673C36.8691 28.4431 36.6062 28.1802 36.282 28.1802Z"/>
<path d="M25.636 31.311H23.1311C22.8068 31.311 22.5439 31.5739 22.5439 31.8981C22.5439 32.2224 22.8068 32.4853 23.1311 32.4853H25.636C25.9602 32.4853 26.2231 32.2224 26.2231 31.8981C26.2231 31.5738 25.9602 31.311 25.636 31.311Z"/>
<path d="M36.2818 31.311H28.1408C27.8166 31.311 27.5537 31.5739 27.5537 31.8981C27.5537 32.2224 27.8166 32.4853 28.1408 32.4853H36.2818C36.606 32.4853 36.8689 32.2224 36.8689 31.8981C36.8689 31.5738 36.606 31.311 36.2818 31.311Z"/>
<path d="M29.3933 34.4424H23.1311C22.8068 34.4424 22.5439 34.7053 22.5439 35.0295C22.5439 35.3537 22.8068 35.6166 23.1311 35.6166H29.3933C29.7175 35.6166 29.9804 35.3537 29.9804 35.0295C29.9804 34.7053 29.7175 34.4424 29.3933 34.4424Z"/>
<path d="M36.2817 34.4424H31.8981C31.5739 34.4424 31.311 34.7053 31.311 35.0295C31.311 35.3537 31.5739 35.6166 31.8981 35.6166H36.2817C36.606 35.6166 36.8689 35.3537 36.8689 35.0295C36.8689 34.7053 36.606 34.4424 36.2817 34.4424Z"/>
<path d="M16.8689 13.1509H3.09199C2.76777 13.1509 2.50488 13.4138 2.50488 13.738V17.4953C2.50488 17.8196 2.76777 18.0824 3.09199 18.0824H16.8689C17.1931 18.0824 17.456 17.8196 17.456 17.4953V13.738C17.456 13.4137 17.1932 13.1509 16.8689 13.1509ZM16.2818 16.9082H3.6791V14.325H16.2818V16.9082V16.9082Z"/>
<path d="M16.8688 19.4131H11.8591C11.5349 19.4131 11.272 19.676 11.272 20.0002V25.0099C11.272 25.3342 11.5349 25.597 11.8591 25.597H16.8688C17.1931 25.597 17.456 25.3342 17.456 25.0099V20.0002C17.4559 19.676 17.1931 19.4131 16.8688 19.4131ZM16.2817 24.4229H12.4461V20.5873H16.2817V24.4229Z"/>
<path d="M8.10184 19.4131H3.09199C2.76777 19.4131 2.50488 19.676 2.50488 20.0002V25.0099C2.50488 25.3342 2.76777 25.597 3.09199 25.597H8.10176C8.42598 25.597 8.68887 25.3342 8.68887 25.0099V20.0002C8.68887 19.676 8.42606 19.4131 8.10184 19.4131ZM7.51473 24.4229H3.6791V20.5873H7.51473V24.4229V24.4229Z"/>
<path d="M16.8688 26.9277H11.8591C11.5349 26.9277 11.272 27.1906 11.272 27.5148V32.5246C11.272 32.8488 11.5349 33.1117 11.8591 33.1117H16.8688C17.1931 33.1117 17.456 32.8488 17.456 32.5246V27.5148C17.4559 27.1906 17.1931 26.9277 16.8688 26.9277ZM16.2817 31.9375H12.4461V28.1019H16.2817V31.9375Z"/>
<path d="M8.10184 26.9277H3.09199C2.76777 26.9277 2.50488 27.1906 2.50488 27.5148V32.5246C2.50488 32.8488 2.76777 33.1117 3.09199 33.1117H8.10176C8.42598 33.1117 8.68887 32.8488 8.68887 32.5246V27.5148C8.68887 27.1906 8.42606 26.9277 8.10184 26.9277ZM7.51473 31.9375H3.6791V28.1019H7.51473V31.9375V31.9375Z"/>
<path d="M6.22291 21.9178H6.18377V21.8786C6.18377 21.5544 5.92088 21.2915 5.59666 21.2915C5.27244 21.2915 5.00955 21.5544 5.00955 21.8786V21.9178H4.97041C4.64619 21.9178 4.3833 22.1806 4.3833 22.5049C4.3833 22.8291 4.64619 23.092 4.97041 23.092H5.00955V23.1311C5.00955 23.4553 5.27244 23.7182 5.59666 23.7182C5.92088 23.7182 6.18377 23.4553 6.18377 23.1311V23.092H6.22291C6.54713 23.092 6.81002 22.8291 6.81002 22.5049C6.81002 22.1806 6.54713 21.9178 6.22291 21.9178Z"/>
<path d="M14.9904 21.918H13.738C13.4138 21.918 13.1509 22.1809 13.1509 22.5051C13.1509 22.8293 13.4138 23.0922 13.738 23.0922H14.9904C15.3146 23.0922 15.5775 22.8293 15.5775 22.5051C15.5775 22.1809 15.3146 21.918 14.9904 21.918Z"/>
<path d="M6.42732 30.0194L6.63842 29.8084C6.86772 29.5791 6.86772 29.2073 6.63842 28.9781C6.40912 28.7488 6.0374 28.7488 5.80818 28.9781L5.59709 29.1892L5.386 28.9781C5.1567 28.7488 4.78498 28.7488 4.55576 28.9781C4.32646 29.2074 4.32646 29.5791 4.55576 29.8084L4.76686 30.0194L4.55576 30.2305C4.32646 30.4598 4.32646 30.8315 4.55576 31.0608C4.67037 31.1754 4.82068 31.2327 4.97084 31.2327C5.121 31.2327 5.27131 31.1754 5.38592 31.0608L5.59701 30.8497L5.80811 31.0608C5.92272 31.1754 6.07303 31.2327 6.22318 31.2327C6.37334 31.2327 6.52365 31.1754 6.63826 31.0608C6.86756 30.8315 6.86756 30.4598 6.63826 30.2305L6.42732 30.0194Z"/>
<path d="M15.4054 28.9781C15.1761 28.7488 14.8044 28.7488 14.5752 28.9781L13.3228 30.2305C12.9611 30.5921 13.2245 31.2327 13.7378 31.2327C13.8881 31.2327 14.0383 31.1754 14.1529 31.0608L15.4053 29.8084C15.6347 29.5791 15.6347 29.2073 15.4054 28.9781Z"/>
</g>
</svg>
