<svg width="106" height="113" viewBox="0 0 106 113" fill="none" xmlns="http://www.w3.org/2000/svg">
<path fill-rule="evenodd" clip-rule="evenodd" d="M27.2 11.475L28.7 9.975C29.1 9.575 29.9 9.575 30.3 9.975L31.8 11.475C32.2 11.875 32.2 12.675 31.8 13.075L30.3 14.575C29.9 14.975 29.1 14.975 28.7 14.575L27.2 13.075C26.8 12.575 26.8 11.875 27.2 11.475ZM51.8 49.775V60.575C51.8 61.175 52.3 61.675 52.9 61.675H53.4C54 61.675 54.5 61.175 54.5 60.575V49.775L55.4 48.875C55.8 48.475 55.8 47.675 55.4 47.275L53.9 45.775C53.5 45.375 52.7 45.375 52.3 45.775L50.8 47.275C50.4 47.675 50.4 48.475 50.8 48.875L51.8 49.775ZM53.8 67.075L55.3 68.575C55.7 68.975 55.7 69.775 55.3 70.175L53.8 71.675C53.4 72.075 52.6 72.075 52.2 71.675L50.7 70.175C50.3 69.775 50.3 68.975 50.7 68.575L52.2 67.075C52.6 66.575 53.4 66.575 53.8 67.075ZM53.8 0.375L55.3 1.875C55.7 2.275 55.7 3.075 55.3 3.475L53.8 4.975C53.4 5.375 52.6 5.375 52.2 4.975L50.7 3.475C50.3 3.075 50.3 2.275 50.7 1.875L52.2 0.375C52.6 -0.125 53.4 -0.125 53.8 0.375ZM83.9 35.175L85.4 33.675C85.8 33.275 86.6 33.275 87 33.675L88.5 35.175C88.9 35.575 88.9 36.375 88.5 36.775L87 38.275C86.6 38.675 85.8 38.675 85.4 38.275L83.9 36.775C83.4 36.275 83.4 35.575 83.9 35.175ZM17.6 35.175L19.1 33.675C19.5 33.275 20.3 33.275 20.7 33.675L22.2 35.175C22.6 35.575 22.6 36.375 22.2 36.775L20.7 38.275C20.3 38.675 19.5 38.675 19.1 38.275L17.6 36.775C17.1 36.275 17.1 35.575 17.6 35.175ZM75.1 43.275L74.2 42.375C73.8 41.975 73 41.975 72.6 42.375L71.1 43.875C70.7 44.275 70.7 45.075 71.1 45.475L72.6 46.975C73 47.375 73.8 47.375 74.2 46.975L75.1 46.075H85.4C86 46.075 86.5 45.575 86.5 44.975V44.475C86.5 43.875 86 43.375 85.4 43.375H75.1V43.275ZM75.1 25.875L74.2 24.975C73.8 24.575 73 24.575 72.6 24.975L71.1 26.475C70.7 26.875 70.7 27.675 71.1 28.075L72.6 29.575C73 29.975 73.8 29.975 74.2 29.575L75.1 28.675H85.4C86 28.675 86.5 28.175 86.5 27.575V27.075C86.5 26.475 86 25.975 85.4 25.975H75.1V25.875ZM31.3 43.275L32.2 42.375C32.6 41.975 33.4 41.975 33.8 42.375L35.3 43.875C35.7 44.275 35.7 45.075 35.3 45.475L33.8 46.975C33.4 47.375 32.6 47.375 32.2 46.975L31.3 46.075H21C20.4 46.075 19.9 45.575 19.9 44.975V44.475C19.9 43.875 20.4 43.375 21 43.375H31.3V43.275ZM31.3 25.875L32.2 24.975C32.6 24.575 33.4 24.575 33.8 24.975L35.3 26.475C35.7 26.875 35.7 27.675 35.3 28.075L33.8 29.575C33.4 29.975 32.6 29.975 32.2 29.575L31.3 28.675H21C20.4 28.675 19.9 28.175 19.9 27.575V27.075C19.9 26.475 20.4 25.975 21 25.975H31.3V25.875ZM71.7 37.375L70.8 38.275C70.4 38.675 69.6 38.675 69.2 38.275L67.7 36.775C67.3 36.375 67.3 35.575 67.7 35.175L69.2 33.675C69.6 33.275 70.4 33.275 70.8 33.675L71.7 34.575H76.8C77.4 34.575 77.9 35.075 77.9 35.675V36.175C77.9 36.775 77.4 37.275 76.8 37.275H71.7V37.375ZM37.8 7.075C37.8 6.475 37.3 5.975 36.7 5.975H36.2C35.6 5.975 35.1 6.475 35.1 7.075V17.475L34.8 17.775H24.4C23.8 17.775 23.3 18.275 23.3 18.875V19.375C23.3 19.975 23.8 20.475 24.4 20.475H34.8L35.7 21.375C36.1 21.775 36.9 21.775 37.3 21.375L38.8 19.875C39.2 19.475 39.2 18.675 38.8 18.275L37.9 17.375V7.075H37.8ZM43.1 14.075V3.77499C43.1 3.17499 43.6 2.675 44.2 2.675H44.7C45.3 2.675 45.8 3.17499 45.8 3.77499V14.075L46.7 14.975C47.1 15.375 47.1 16.175 46.7 16.575L45.2 18.075C44.8 18.475 44 18.475 43.6 18.075L42.1 16.575C41.7 16.175 41.7 15.375 42.1 14.975L43.1 14.075ZM51.8 22.175V11.375C51.8 10.775 52.3 10.275 52.9 10.275H53.4C54 10.275 54.5 10.775 54.5 11.375V22.175L55.4 23.075C55.8 23.475 55.8 24.275 55.4 24.675L53.9 26.175C53.5 26.575 52.7 26.575 52.3 26.175L50.8 24.675C50.4 24.275 50.4 23.475 50.8 23.075L51.8 22.175ZM60.5 14.075V3.77499C60.5 3.17499 61 2.675 61.6 2.675H62.1C62.7 2.675 63.2 3.17499 63.2 3.77499V14.075L64.1 14.975C64.5 15.375 64.5 16.175 64.1 16.575L62.6 18.075C62.2 18.475 61.4 18.475 61 18.075L59.5 16.575C59.1 16.175 59.1 15.375 59.5 14.975L60.5 14.075ZM82.1 20.575H71.7L70.8 21.475C70.4 21.875 69.6 21.875 69.2 21.475L67.7 19.975C67.3 19.575 67.3 18.775 67.7 18.375L68.6 17.475V7.675V7.075C68.6 6.775 68.7 6.575 68.8 6.375C69 6.075 69.3 5.975 69.7 5.975H70.2C70.8 5.975 71.3 6.475 71.3 7.075V17.475L71.6 17.775H82C82.6 17.775 83.1 18.275 83.1 18.875V19.375C83.2 20.075 82.7 20.575 82.1 20.575ZM63.3 28.975V42.975L64.2 43.875C64.6 44.275 64.6 45.075 64.2 45.475L62.7 46.975C62.3 47.375 61.5 47.375 61.1 46.975L59.6 45.475C59.2 45.075 59.2 44.275 59.6 43.875L60.5 42.975V30.675L53.2 37.975L45.9 30.675V42.975L46.8 43.875C47.2 44.275 47.2 45.075 46.8 45.475L45.3 46.975C44.9 47.375 44.1 47.375 43.7 46.975L42.2 45.475C41.8 45.075 41.8 44.275 42.2 43.875L43.1 42.975V28.975L42.2 28.075C41.8 27.675 41.8 26.875 42.2 26.475L43.7 24.975C44.1 24.575 44.9 24.575 45.3 24.975L47.2 26.875C47.4 27.075 47.4 27.475 47.2 27.675L47 27.875L53.2 34.075L59.4 27.875L59.2 27.675C59 27.475 59 27.075 59.2 26.875L61.1 24.975C61.5 24.575 62.3 24.575 62.7 24.975L64.2 26.475C64.6 26.875 64.6 27.675 64.2 28.075L63.3 28.975ZM34.7 37.375H29.6C29 37.375 28.5 36.875 28.5 36.275V35.775C28.5 35.175 29 34.675 29.6 34.675H34.7L35.6 33.775C36 33.375 36.8 33.375 37.2 33.775L38.7 35.275C39.1 35.675 39.1 36.475 38.7 36.875L37.2 38.375C36.8 38.775 36 38.775 35.6 38.375L34.7 37.375ZM24.3 51.375H34.7L35.6 50.475C36 50.075 36.8 50.075 37.2 50.475L38.7 51.975C39.1 52.375 39.1 53.175 38.7 53.575L37.8 54.475V64.875C37.8 65.475 37.3 65.975 36.7 65.975H36.2C35.6 65.975 35.1 65.475 35.1 64.875V54.475L34.8 54.175H24.4C23.8 54.175 23.3 53.675 23.3 53.075V52.575C23.2 51.875 23.7 51.375 24.3 51.375ZM43.1 68.175V57.875L42.2 56.975C41.8 56.575 41.8 55.775 42.2 55.375L43.7 53.875C44.1 53.475 44.9 53.475 45.3 53.875L46.8 55.375C47.2 55.775 47.2 56.575 46.8 56.975L45.9 57.875V68.175C45.9 68.775 45.4 69.275 44.8 69.275H44.3C43.6 69.275 43.1 68.775 43.1 68.175ZM60.5 68.175V57.875L59.6 56.975C59.2 56.575 59.2 55.775 59.6 55.375L61.1 53.875C61.5 53.475 62.3 53.475 62.7 53.875L64.2 55.375C64.6 55.775 64.6 56.575 64.2 56.975L63.3 57.875V68.175C63.3 68.775 62.8 69.275 62.2 69.275H61.7C61 69.275 60.5 68.775 60.5 68.175ZM68.6 64.775V54.375L67.7 53.475C67.3 53.075 67.3 52.275 67.7 51.875L69.2 50.375C69.6 49.975 70.4 49.975 70.8 50.375L71.7 51.275H82.1C82.7 51.275 83.2 51.775 83.2 52.375V52.875C83.2 53.475 82.7 53.975 82.1 53.975H71.7L71.4 54.275V64.675C71.4 65.275 70.9 65.775 70.3 65.775H69.8C69.1 65.975 68.6 65.475 68.6 64.775ZM79.2 60.475C79.6 60.075 79.6 59.275 79.2 58.875L77.7 57.375C77.3 56.975 76.5 56.975 76.1 57.375L74.6 58.875C74.2 59.275 74.2 60.075 74.6 60.475L76.1 61.975C76.5 62.375 77.3 62.375 77.7 61.975L79.2 60.475ZM77.7 9.975C77.3 9.575 76.5 9.575 76.1 9.975L74.6 11.475C74.2 11.875 74.2 12.675 74.6 13.075L76.1 14.575C76.5 14.975 77.3 14.975 77.7 14.575L79.2 13.075C79.6 12.675 79.6 11.875 79.2 11.475L77.7 9.975ZM28.7 61.975C29.1 62.375 29.9 62.375 30.3 61.975L31.8 60.475C32.2 60.075 32.2 59.275 31.8 58.875L30.3 57.375C29.9 56.975 29.1 56.975 28.7 57.375L27.2 58.875C26.8 59.275 26.8 60.075 27.2 60.475L28.7 61.975Z" fill="url(#paint0_linear)"/>
<path fill-rule="evenodd" clip-rule="evenodd" d="M18.2 110.675V98.675L12 109.075C11.8 109.475 11.4 109.675 11 109.675H10.6C10.2 109.675 9.80001 109.475 9.60001 109.175L3.39999 98.975V110.775C3.39999 111.375 2.9 111.875 2.3 111.875H1.10001C0.500006 111.875 0 111.375 0 110.775V93.275C0 92.675 0.500006 92.175 1.10001 92.175H2.3C2.7 92.175 3.1 92.375 3.3 92.775L10.8 105.375L18.2 92.775C18.4 92.375 18.8 92.175 19.2 92.175H20.4C21 92.175 21.5 92.675 21.5 93.275V110.775C21.5 111.075 21.4 111.375 21.2 111.575C21 111.775 20.7 111.875 20.4 111.875H19.2C18.7 111.875 18.2 111.375 18.2 110.675ZM48.6 109.875V110.675C48.6 111.275 48.1 111.775 47.5 111.775H34.9C34.3 111.775 33.8 111.275 33.8 110.675V93.175C33.8 92.575 34.3 92.075 34.9 92.075H47.1C47.7 92.075 48.2 92.575 48.2 93.175V93.975C48.2 94.575 47.7 95.075 47.1 95.075H37.5V100.275H45.9C46.5 100.275 47 100.775 47 101.375V102.175C47 102.775 46.5 103.275 45.9 103.275H37.5V108.775H47.5C48.1 108.775 48.6 109.275 48.6 109.875ZM74 101.675H75.2C75.8 101.675 76.3 102.175 76.3 102.775V109.575C75.3 110.375 74.1 110.975 72.7 111.475C71.3 111.875 69.9 112.175 68.5 112.175C66.5 112.175 64.7 111.775 63 110.875C61.4 109.975 60.1 108.775 59.2 107.275C58.3 105.775 57.8 103.975 57.8 102.075C57.8 100.175 58.3 98.375 59.2 96.875C60.1 95.375 61.4 94.075 63 93.275C64.6 92.375 66.5 91.975 68.5 91.975C70.2 91.975 71.7 92.275 73 92.775C74 93.175 74.8 93.675 75.5 94.275C75.8 94.475 75.9 94.775 75.9 95.075C75.9 95.375 75.8 95.675 75.6 95.875L74.9 96.575C74.5 96.975 73.9 96.975 73.4 96.675C72 95.575 70.5 95.075 68.7 95.075C67.3 95.075 66.1 95.375 65 95.975C63.9 96.575 63.1 97.375 62.5 98.475C61.9 99.575 61.6 100.775 61.6 102.075C61.6 103.375 61.9 104.575 62.5 105.675C63.1 106.775 64 107.575 65 108.175C66.1 108.775 67.3 109.075 68.7 109.075C70.2 109.075 71.6 108.775 72.8 108.075V103.075C72.9 102.175 73.4 101.675 74 101.675ZM100.8 107.275H90.9L89.2 111.175C89 111.575 88.6 111.875 88.2 111.875H86.9C86.5 111.875 86.2 111.675 85.9 111.375C85.7 111.075 85.7 110.675 85.8 110.275L93.7 92.775C93.9 92.375 94.3 92.075 94.7 92.075H96.9C97.4 92.075 97.7 92.375 97.9 92.775L105.8 110.275C106 110.675 105.9 111.075 105.7 111.375C105.5 111.675 105.1 111.875 104.7 111.875H103.4C102.9 111.875 102.5 111.575 102.4 111.175L100.8 107.275ZM99.5 104.375L95.8 95.675L92.1 104.375H99.5Z" fill="white"/>
<defs>
<linearGradient id="paint0_linear" x1="57.6817" y1="7.6333" x2="48.3182" y2="64.2841" gradientUnits="userSpaceOnUse">
<stop stop-color="#5BC5F2"/>
<stop offset="1" stop-color="#4281C3"/>
</linearGradient>
</defs>
</svg>
