<svg width="76" height="80" viewBox="0 0 76 80" fill="none" xmlns="http://www.w3.org/2000/svg">
<path fill-rule="evenodd" clip-rule="evenodd" d="M19.3985 8.18364L20.4683 7.11388C20.7536 6.82861 21.3241 6.82861 21.6094 7.11388L22.6791 8.18364C22.9644 8.46891 22.9644 9.03944 22.6791 9.32471L21.6094 10.3945C21.3241 10.6797 20.7536 10.6797 20.4683 10.3945L19.3985 9.32471C19.1133 8.96813 19.1133 8.46891 19.3985 8.18364ZM36.9426 35.4981V43.2004C36.9426 43.6283 37.2991 43.9848 37.727 43.9848H38.0836C38.5115 43.9848 38.8681 43.6283 38.8681 43.2004V35.4981L39.51 34.8563C39.7952 34.571 39.7952 34.0004 39.51 33.7152L38.4402 32.6454C38.155 32.3601 37.5844 32.3601 37.2992 32.6454L36.2294 33.7152C35.9441 34.0004 35.9441 34.571 36.2294 34.8563L36.9426 35.4981ZM38.3689 47.836L39.4387 48.9057C39.7239 49.191 39.7239 49.7615 39.4387 50.0468L38.3689 51.1166C38.0836 51.4018 37.5131 51.4018 37.2278 51.1166L36.1581 50.0468C35.8728 49.7615 35.8728 49.191 36.1581 48.9057L37.2278 47.836C37.5131 47.4794 38.0836 47.4794 38.3689 47.836ZM38.3689 0.267439L39.4387 1.3372C39.7239 1.62246 39.7239 2.193 39.4387 2.47827L38.3689 3.54803C38.0836 3.8333 37.5131 3.8333 37.2278 3.54803L36.1581 2.47827C35.8728 2.193 35.8728 1.62246 36.1581 1.3372L37.2278 0.267439C37.5131 -0.0891464 38.0836 -0.0891464 38.3689 0.267439ZM59.8354 25.0858L60.9051 24.016C61.1904 23.7308 61.7609 23.7308 62.0462 24.016L63.116 25.0858C63.4012 25.3711 63.4012 25.9416 63.116 26.2269L62.0462 27.2966C61.7609 27.5819 61.1904 27.5819 60.9051 27.2966L59.8354 26.2269C59.4788 25.8703 59.4788 25.3711 59.8354 25.0858ZM12.5521 25.0858L13.6219 24.016C13.9071 23.7308 14.4777 23.7308 14.7629 24.016L15.8327 25.0858C16.118 25.3711 16.118 25.9416 15.8327 26.2269L14.7629 27.2966C14.4777 27.5819 13.9071 27.5819 13.6219 27.2966L12.5521 26.2269C12.1955 25.8703 12.1955 25.3711 12.5521 25.0858ZM53.5595 30.8625L52.9176 30.2206C52.6323 29.9354 52.0618 29.9354 51.7765 30.2206L50.7068 31.2904C50.4215 31.5757 50.4215 32.1462 50.7068 32.4315L51.7765 33.5012C52.0618 33.7865 52.6323 33.7865 52.9176 33.5012L53.5595 32.8594H60.9051C61.333 32.8594 61.6896 32.5028 61.6896 32.0749V31.7183C61.6896 31.2904 61.333 30.9338 60.9051 30.9338H53.5595V30.8625ZM53.5595 18.4533L52.9176 17.8115C52.6323 17.5262 52.0618 17.5262 51.7765 17.8115L50.7068 18.8812C50.4215 19.1665 50.4215 19.737 50.7068 20.0223L51.7765 21.092C52.0618 21.3773 52.6323 21.3773 52.9176 21.092L53.5595 20.4502H60.9051C61.333 20.4502 61.6896 20.0936 61.6896 19.6657V19.3091C61.6896 18.8812 61.333 18.5246 60.9051 18.5246H53.5595V18.4533ZM22.3226 30.8625L22.9644 30.2206C23.2497 29.9354 23.8202 29.9354 24.1055 30.2206L25.1752 31.2904C25.4605 31.5757 25.4605 32.1462 25.1752 32.4315L24.1055 33.5012C23.8202 33.7865 23.2497 33.7865 22.9644 33.5012L22.3226 32.8594H14.9769C14.549 32.8594 14.1924 32.5028 14.1924 32.0749V31.7183C14.1924 31.2904 14.549 30.9338 14.9769 30.9338H22.3226V30.8625ZM22.3226 18.4533L22.9644 17.8115C23.2497 17.5262 23.8202 17.5262 24.1055 17.8115L25.1752 18.8812C25.4605 19.1665 25.4605 19.737 25.1752 20.0223L24.1055 21.092C23.8202 21.3773 23.2497 21.3773 22.9644 21.092L22.3226 20.4502H14.9769C14.549 20.4502 14.1924 20.0936 14.1924 19.6657V19.3091C14.1924 18.8812 14.549 18.5246 14.9769 18.5246H22.3226V18.4533ZM51.1347 26.6548L50.4928 27.2966C50.2075 27.5819 49.637 27.5819 49.3518 27.2966L48.282 26.2269C47.9967 25.9416 47.9967 25.3711 48.282 25.0858L49.3518 24.016C49.637 23.7308 50.2075 23.7308 50.4928 24.016L51.1347 24.6579H54.7718C55.1997 24.6579 55.5563 25.0145 55.5563 25.4424V25.799C55.5563 26.2269 55.1997 26.5835 54.7718 26.5835H51.1347V26.6548ZM26.9582 5.04569C26.9582 4.61778 26.6016 4.2612 26.1737 4.2612H25.8171C25.3892 4.2612 25.0326 4.61778 25.0326 5.04569V12.4627L24.8187 12.6766H17.4017C16.9738 12.6766 16.6172 13.0332 16.6172 13.4611V13.8177C16.6172 14.2456 16.9738 14.6022 17.4017 14.6022H24.8187L25.4605 15.244C25.7458 15.5293 26.3163 15.5293 26.6016 15.244L27.6713 14.1743C27.9566 13.889 27.9566 13.3185 27.6713 13.0332L27.0295 12.3914V5.04569H26.9582ZM30.738 10.0379V2.69222C30.738 2.26431 31.0946 1.90773 31.5225 1.90773H31.879C32.3069 1.90773 32.6635 2.26431 32.6635 2.69222V10.0379L33.3054 10.6797C33.5907 10.965 33.5907 11.5355 33.3054 11.8208L32.2356 12.8906C31.9504 13.1758 31.3798 13.1758 31.0946 12.8906L30.0248 11.8208C29.7395 11.5355 29.7395 10.965 30.0248 10.6797L30.738 10.0379ZM36.9426 15.8146V8.11232C36.9426 7.68442 37.2991 7.32783 37.727 7.32783H38.0836C38.5115 7.32783 38.8681 7.68442 38.8681 8.11232V15.8146L39.51 16.4564C39.7952 16.7417 39.7952 17.3122 39.51 17.5975L38.4402 18.6673C38.155 18.9525 37.5844 18.9525 37.2992 18.6673L36.2294 17.5975C35.9441 17.3122 35.9441 16.7417 36.2294 16.4564L36.9426 15.8146ZM43.1472 10.0379V2.69222C43.1472 2.26431 43.5037 1.90773 43.9316 1.90773H44.2882C44.7161 1.90773 45.0727 2.26431 45.0727 2.69222V10.0379L45.7146 10.6797C45.9998 10.965 45.9998 11.5355 45.7146 11.8208L44.6448 12.8906C44.3596 13.1758 43.789 13.1758 43.5037 12.8906L42.434 11.8208C42.1487 11.5355 42.1487 10.965 42.434 10.6797L43.1472 10.0379ZM58.5517 14.6735H51.1347L50.4928 15.3154C50.2075 15.6006 49.637 15.6006 49.3518 15.3154L48.282 14.2456C47.9967 13.9603 47.9967 13.3898 48.282 13.1045L48.9238 12.4627V5.47359V5.04569C48.9238 4.83173 48.9952 4.6891 49.0665 4.54647C49.2091 4.33252 49.4231 4.2612 49.7083 4.2612H50.0649C50.4928 4.2612 50.8494 4.61778 50.8494 5.04569V12.4627L51.0634 12.6766H58.4803C58.9082 12.6766 59.2648 13.0332 59.2648 13.4611V13.8177C59.3361 14.3169 58.9796 14.6735 58.5517 14.6735ZM45.144 20.6641V30.6485L45.7859 31.2904C46.0712 31.5757 46.0712 32.1462 45.7859 32.4315L44.7161 33.5012C44.4309 33.7865 43.8603 33.7865 43.5751 33.5012L42.5053 32.4315C42.22 32.1462 42.22 31.5757 42.5053 31.2904L43.1472 30.6485V21.8765L37.941 27.0827L32.7348 21.8765V30.6485L33.3767 31.2904C33.662 31.5757 33.662 32.1462 33.3767 32.4315L32.307 33.5012C32.0217 33.7865 31.4511 33.7865 31.1659 33.5012L30.0961 32.4315C29.8108 32.1462 29.8108 31.5757 30.0961 31.2904L30.738 30.6485V20.6641L30.0961 20.0223C29.8108 19.737 29.8108 19.1665 30.0961 18.8812L31.1659 17.8115C31.4511 17.5262 32.0217 17.5262 32.307 17.8115L33.662 19.1665C33.8046 19.3091 33.8046 19.5944 33.662 19.737L33.5193 19.8797L37.941 24.3013L42.3627 19.8797L42.22 19.737C42.0774 19.5944 42.0774 19.3091 42.22 19.1665L43.5751 17.8115C43.8603 17.5262 44.4309 17.5262 44.7161 17.8115L45.7859 18.8812C46.0712 19.1665 46.0712 19.737 45.7859 20.0223L45.144 20.6641ZM24.7473 26.6548H21.1102C20.6823 26.6548 20.3257 26.2982 20.3257 25.8703V25.5137C20.3257 25.0858 20.6823 24.7292 21.1102 24.7292H24.7473L25.3892 24.0874C25.6745 23.8021 26.245 23.8021 26.5303 24.0874L27.6 25.1571C27.8853 25.4424 27.8853 26.0129 27.6 26.2982L26.5303 27.368C26.245 27.6532 25.6745 27.6532 25.3892 27.368L24.7473 26.6548ZM17.3304 36.6392H24.7473L25.3892 35.9973C25.6745 35.7121 26.245 35.7121 26.5303 35.9973L27.6 37.0671C27.8853 37.3523 27.8853 37.9229 27.6 38.2082L26.9582 38.85V46.267C26.9582 46.6949 26.6016 47.0515 26.1737 47.0515H25.8171C25.3892 47.0515 25.0326 46.6949 25.0326 46.267V38.85L24.8187 38.6361H17.4017C16.9738 38.6361 16.6172 38.2795 16.6172 37.8516V37.495C16.5459 36.9958 16.9025 36.6392 17.3304 36.6392ZM30.738 48.6205V41.2748L30.0961 40.6329C29.8108 40.3477 29.8108 39.7771 30.0961 39.4919L31.1659 38.4221C31.4511 38.1368 32.0217 38.1368 32.307 38.4221L33.3767 39.4919C33.662 39.7771 33.662 40.3477 33.3767 40.6329L32.7348 41.2748V48.6205C32.7348 49.0484 32.3783 49.4049 31.9504 49.4049H31.5938C31.0946 49.4049 30.738 49.0484 30.738 48.6205ZM43.1472 48.6205V41.2748L42.5053 40.6329C42.22 40.3477 42.22 39.7771 42.5053 39.4919L43.5751 38.4221C43.8603 38.1368 44.4309 38.1368 44.7161 38.4221L45.7859 39.4919C46.0712 39.7771 46.0712 40.3477 45.7859 40.6329L45.144 41.2748V48.6205C45.144 49.0484 44.7874 49.4049 44.3595 49.4049H44.003C43.5037 49.4049 43.1472 49.0484 43.1472 48.6205ZM48.9238 46.1957V38.7787L48.282 38.1368C47.9967 37.8516 47.9967 37.281 48.282 36.9958L49.3518 35.926C49.637 35.6407 50.2075 35.6407 50.4928 35.926L51.1347 36.5679H58.5517C58.9796 36.5679 59.3362 36.9244 59.3362 37.3523V37.7089C59.3362 38.1368 58.9796 38.4934 58.5517 38.4934H51.1347L50.9207 38.7074V46.1244C50.9207 46.5523 50.5641 46.9088 50.1362 46.9088H49.7796C49.2804 47.0515 48.9238 46.6949 48.9238 46.1957ZM56.4835 43.129C56.7687 42.8438 56.7687 42.2732 56.4835 41.988L55.4137 40.9182C55.1284 40.6329 54.5579 40.6329 54.2726 40.9182L53.2029 41.988C52.9176 42.2732 52.9176 42.8438 53.2029 43.129L54.2726 44.1988C54.5579 44.4841 55.1284 44.4841 55.4137 44.1988L56.4835 43.129ZM55.4137 7.11388C55.1284 6.82861 54.5579 6.82861 54.2726 7.11388L53.2029 8.18364C52.9176 8.46891 52.9176 9.03944 53.2029 9.32471L54.2726 10.3945C54.5579 10.6797 55.1284 10.6797 55.4137 10.3945L56.4835 9.32471C56.7687 9.03944 56.7687 8.46891 56.4835 8.18364L55.4137 7.11388ZM20.4683 44.1988C20.7536 44.4841 21.3241 44.4841 21.6094 44.1988L22.6791 43.129C22.9644 42.8438 22.9644 42.2732 22.6791 41.988L21.6094 40.9182C21.3241 40.6329 20.7536 40.6329 20.4683 40.9182L19.3985 41.988C19.1133 42.2732 19.1133 42.8438 19.3985 43.129L20.4683 44.1988Z" fill="url(#paint0_linear)"/>
<path fill-rule="evenodd" clip-rule="evenodd" d="M12.9797 78.9302V70.3722L8.55806 77.7892C8.41542 78.0744 8.13015 78.2171 7.84488 78.2171H7.55962C7.27435 78.2171 6.98908 78.0744 6.84645 77.8605L2.42478 70.5861V79.0016C2.42478 79.4295 2.0682 79.786 1.6403 79.786H0.784493C0.35659 79.786 0 79.4295 0 79.0016V66.5211C0 66.0932 0.35659 65.7366 0.784493 65.7366H1.6403C1.92556 65.7366 2.21083 65.8792 2.35347 66.1645L7.70225 75.1504L12.9797 66.1645C13.1224 65.8792 13.4076 65.7366 13.6929 65.7366H14.5487C14.9766 65.7366 15.3332 66.0932 15.3332 66.5211V79.0016C15.3332 79.2155 15.2619 79.4295 15.1192 79.5721C14.9766 79.7147 14.7626 79.786 14.5487 79.786H13.6929C13.3363 79.786 12.9797 79.4295 12.9797 78.9302ZM34.6601 78.3597V78.9302C34.6601 79.3581 34.3035 79.7147 33.8756 79.7147H24.8897C24.4618 79.7147 24.1052 79.3581 24.1052 78.9302V66.4497C24.1052 66.0218 24.4618 65.6653 24.8897 65.6653H33.5904C34.0183 65.6653 34.3749 66.0218 34.3749 66.4497V67.0203C34.3749 67.4482 34.0183 67.8048 33.5904 67.8048H26.7439V71.5133H32.7346C33.1625 71.5133 33.5191 71.8698 33.5191 72.2978V72.8683C33.5191 73.2962 33.1625 73.6528 32.7346 73.6528H26.7439V77.5752H33.8756C34.3035 77.5752 34.6601 77.9318 34.6601 78.3597ZM52.7747 72.5117H53.6305C54.0584 72.5117 54.415 72.8683 54.415 73.2962V78.1458C53.7018 78.7163 52.846 79.1442 51.8476 79.5008C50.8491 79.786 49.8507 80 48.8522 80C47.4259 80 46.1422 79.7147 44.9298 79.0729C43.7887 78.431 42.8616 77.5752 42.2197 76.5055C41.5779 75.4357 41.2213 74.152 41.2213 72.797C41.2213 71.4419 41.5779 70.1582 42.2197 69.0885C42.8616 68.0187 43.7887 67.0916 44.9298 66.5211C46.0709 65.8792 47.4259 65.5939 48.8522 65.5939C50.0646 65.5939 51.1344 65.8079 52.0615 66.1645C52.7747 66.4497 53.3452 66.8063 53.8444 67.2342C54.0584 67.3769 54.1297 67.5908 54.1297 67.8048C54.1297 68.0187 54.0584 68.2327 53.9158 68.3753L53.4165 68.8745C53.1313 69.1598 52.7034 69.1598 52.3468 68.9458C51.3483 68.1614 50.2786 67.8048 48.9949 67.8048C47.9964 67.8048 47.1406 68.0187 46.3561 68.4466C45.5717 68.8745 45.0011 69.4451 44.5732 70.2295C44.1453 71.014 43.9314 71.8698 43.9314 72.797C43.9314 73.7241 44.1453 74.5799 44.5732 75.3644C45.0011 76.1489 45.643 76.7194 46.3561 77.1473C47.1406 77.5752 47.9964 77.7892 48.9949 77.7892C50.0646 77.7892 51.0631 77.5752 51.9189 77.076V73.5101C51.9902 72.8683 52.3468 72.5117 52.7747 72.5117ZM71.8877 76.5055H64.8273L63.6149 79.2868C63.4723 79.5721 63.187 79.786 62.9017 79.786H61.9746C61.6893 79.786 61.4754 79.6434 61.2614 79.4295C61.1188 79.2155 61.1188 78.9302 61.1901 78.645L66.8242 66.1645C66.9668 65.8792 67.2521 65.6653 67.5373 65.6653H69.1063C69.4629 65.6653 69.6768 65.8792 69.8195 66.1645L75.4535 78.645C75.5962 78.9302 75.5249 79.2155 75.3822 79.4295C75.2396 79.6434 74.9543 79.786 74.6691 79.786H73.7419C73.3853 79.786 73.1001 79.5721 73.0287 79.2868L71.8877 76.5055ZM70.9605 74.4373L68.3218 68.2327L65.6831 74.4373H70.9605Z" fill="white"/>
<defs>
<linearGradient id="paint0_linear" x1="41.1372" y1="5.44385" x2="34.4594" y2="45.8456" gradientUnits="userSpaceOnUse">
<stop stop-color="#5BC5F2"/>
<stop offset="1" stop-color="#4281C3"/>
</linearGradient>
</defs>
</svg>
