<svg width="76" height="80" viewBox="0 0 76 80" fill="none" xmlns="http://www.w3.org/2000/svg">
<path fill-rule="evenodd" clip-rule="evenodd" d="M19.3981 8.18364L20.4678 7.11388C20.7531 6.82861 21.3236 6.82861 21.6089 7.11388L22.6786 8.18364C22.9639 8.46891 22.9639 9.03944 22.6786 9.32471L21.6089 10.3945C21.3236 10.6797 20.7531 10.6797 20.4678 10.3945L19.3981 9.32471C19.1128 8.96813 19.1128 8.46891 19.3981 8.18364ZM36.9421 35.4981V43.2004C36.9421 43.6283 37.2987 43.9848 37.7266 43.9848H38.0831C38.511 43.9848 38.8676 43.6283 38.8676 43.2004V35.4981L39.5095 34.8563C39.7948 34.571 39.7948 34.0004 39.5095 33.7152L38.4397 32.6454C38.1545 32.3601 37.5839 32.3601 37.2987 32.6454L36.2289 33.7152C35.9436 34.0004 35.9436 34.571 36.2289 34.8563L36.9421 35.4981ZM38.3684 47.836L39.4382 48.9057C39.7234 49.191 39.7234 49.7615 39.4382 50.0468L38.3684 51.1166C38.0832 51.4018 37.5126 51.4018 37.2273 51.1166L36.1576 50.0468C35.8723 49.7615 35.8723 49.191 36.1576 48.9057L37.2273 47.836C37.5126 47.4794 38.0832 47.4794 38.3684 47.836ZM38.3684 0.267439L39.4382 1.3372C39.7234 1.62246 39.7234 2.193 39.4382 2.47827L38.3684 3.54803C38.0832 3.8333 37.5126 3.8333 37.2273 3.54803L36.1576 2.47827C35.8723 2.193 35.8723 1.62246 36.1576 1.3372L37.2273 0.267439C37.5126 -0.0891464 38.0832 -0.0891464 38.3684 0.267439ZM59.8349 25.0858L60.9046 24.016C61.1899 23.7308 61.7604 23.7308 62.0457 24.016L63.1155 25.0858C63.4007 25.3711 63.4007 25.9416 63.1155 26.2269L62.0457 27.2966C61.7604 27.5819 61.1899 27.5819 60.9046 27.2966L59.8349 26.2269C59.4783 25.8703 59.4783 25.3711 59.8349 25.0858ZM12.5516 25.0858L13.6214 24.016C13.9066 23.7308 14.4772 23.7308 14.7624 24.016L15.8322 25.0858C16.1175 25.3711 16.1175 25.9416 15.8322 26.2269L14.7624 27.2966C14.4772 27.5819 13.9066 27.5819 13.6214 27.2966L12.5516 26.2269C12.195 25.8703 12.195 25.3711 12.5516 25.0858ZM53.559 30.8625L52.9171 30.2206C52.6319 29.9354 52.0613 29.9354 51.776 30.2206L50.7063 31.2904C50.421 31.5757 50.421 32.1462 50.7063 32.4315L51.776 33.5012C52.0613 33.7865 52.6319 33.7865 52.9171 33.5012L53.559 32.8594H60.9046C61.3325 32.8594 61.6891 32.5028 61.6891 32.0749V31.7183C61.6891 31.2904 61.3325 30.9338 60.9046 30.9338H53.559V30.8625ZM53.559 18.4533L52.9171 17.8115C52.6319 17.5262 52.0613 17.5262 51.776 17.8115L50.7063 18.8812C50.421 19.1665 50.421 19.737 50.7063 20.0223L51.776 21.092C52.0613 21.3773 52.6319 21.3773 52.9171 21.092L53.559 20.4502H60.9046C61.3325 20.4502 61.6891 20.0936 61.6891 19.6657V19.3091C61.6891 18.8812 61.3325 18.5246 60.9046 18.5246H53.559V18.4533ZM22.3221 30.8625L22.9639 30.2206C23.2492 29.9354 23.8197 29.9354 24.105 30.2206L25.1748 31.2904C25.46 31.5757 25.46 32.1462 25.1748 32.4315L24.105 33.5012C23.8197 33.7865 23.2492 33.7865 22.9639 33.5012L22.3221 32.8594H14.9764C14.5485 32.8594 14.1919 32.5028 14.1919 32.0749V31.7183C14.1919 31.2904 14.5485 30.9338 14.9764 30.9338H22.3221V30.8625ZM22.3221 18.4533L22.9639 17.8115C23.2492 17.5262 23.8197 17.5262 24.105 17.8115L25.1748 18.8812C25.46 19.1665 25.46 19.737 25.1748 20.0223L24.105 21.092C23.8197 21.3773 23.2492 21.3773 22.9639 21.092L22.3221 20.4502H14.9764C14.5485 20.4502 14.1919 20.0936 14.1919 19.6657V19.3091C14.1919 18.8812 14.5485 18.5246 14.9764 18.5246H22.3221V18.4533ZM51.1342 26.6548L50.4923 27.2966C50.2071 27.5819 49.6365 27.5819 49.3513 27.2966L48.2815 26.2269C47.9962 25.9416 47.9962 25.3711 48.2815 25.0858L49.3513 24.016C49.6365 23.7308 50.2071 23.7308 50.4923 24.016L51.1342 24.6579H54.7714C55.1993 24.6579 55.5558 25.0145 55.5558 25.4424V25.799C55.5558 26.2269 55.1993 26.5835 54.7714 26.5835H51.1342V26.6548ZM26.9577 5.04569C26.9577 4.61778 26.6011 4.2612 26.1732 4.2612H25.8166C25.3887 4.2612 25.0321 4.61778 25.0321 5.04569V12.4627L24.8182 12.6766H17.4012C16.9733 12.6766 16.6167 13.0332 16.6167 13.4611V13.8177C16.6167 14.2456 16.9733 14.6022 17.4012 14.6022H24.8182L25.46 15.244C25.7453 15.5293 26.3158 15.5293 26.6011 15.244L27.6708 14.1743C27.9561 13.889 27.9561 13.3185 27.6708 13.0332L27.029 12.3914V5.04569H26.9577ZM30.7375 10.0379V2.69222C30.7375 2.26431 31.0941 1.90773 31.522 1.90773H31.8786C32.3065 1.90773 32.663 2.26431 32.663 2.69222V10.0379L33.3049 10.6797C33.5902 10.965 33.5902 11.5355 33.3049 11.8208L32.2351 12.8906C31.9499 13.1758 31.3793 13.1758 31.0941 12.8906L30.0243 11.8208C29.739 11.5355 29.739 10.965 30.0243 10.6797L30.7375 10.0379ZM36.9421 15.8146V8.11232C36.9421 7.68442 37.2987 7.32783 37.7266 7.32783H38.0831C38.511 7.32783 38.8676 7.68442 38.8676 8.11232V15.8146L39.5095 16.4564C39.7948 16.7417 39.7948 17.3122 39.5095 17.5975L38.4397 18.6673C38.1545 18.9525 37.5839 18.9525 37.2987 18.6673L36.2289 17.5975C35.9436 17.3122 35.9436 16.7417 36.2289 16.4564L36.9421 15.8146ZM43.1467 10.0379V2.69222C43.1467 2.26431 43.5033 1.90773 43.9312 1.90773H44.2877C44.7156 1.90773 45.0722 2.26431 45.0722 2.69222V10.0379L45.7141 10.6797C45.9994 10.965 45.9994 11.5355 45.7141 11.8208L44.6443 12.8906C44.3591 13.1758 43.7885 13.1758 43.5033 12.8906L42.4335 11.8208C42.1482 11.5355 42.1482 10.965 42.4335 10.6797L43.1467 10.0379ZM58.5512 14.6735H51.1342L50.4923 15.3154C50.2071 15.6006 49.6365 15.6006 49.3513 15.3154L48.2815 14.2456C47.9962 13.9603 47.9962 13.3898 48.2815 13.1045L48.9234 12.4627V5.47359V5.04569C48.9234 4.83173 48.9947 4.6891 49.066 4.54647C49.2086 4.33252 49.4226 4.2612 49.7079 4.2612H50.0644C50.4923 4.2612 50.8489 4.61778 50.8489 5.04569V12.4627L51.0629 12.6766H58.4799C58.9078 12.6766 59.2643 13.0332 59.2643 13.4611V13.8177C59.3357 14.3169 58.9791 14.6735 58.5512 14.6735ZM45.1435 20.6641V30.6485L45.7854 31.2904C46.0707 31.5757 46.0707 32.1462 45.7854 32.4315L44.7156 33.5012C44.4304 33.7865 43.8598 33.7865 43.5746 33.5012L42.5048 32.4315C42.2195 32.1462 42.2195 31.5757 42.5048 31.2904L43.1467 30.6485V21.8765L37.9405 27.0827L32.7344 21.8765V30.6485L33.3762 31.2904C33.6615 31.5757 33.6615 32.1462 33.3762 32.4315L32.3065 33.5012C32.0212 33.7865 31.4507 33.7865 31.1654 33.5012L30.0956 32.4315C29.8104 32.1462 29.8104 31.5757 30.0956 31.2904L30.7375 30.6485V20.6641L30.0956 20.0223C29.8104 19.737 29.8104 19.1665 30.0956 18.8812L31.1654 17.8115C31.4507 17.5262 32.0212 17.5262 32.3065 17.8115L33.6615 19.1665C33.8041 19.3091 33.8041 19.5944 33.6615 19.737L33.5189 19.8797L37.9405 24.3013L42.3622 19.8797L42.2195 19.737C42.0769 19.5944 42.0769 19.3091 42.2195 19.1665L43.5746 17.8115C43.8598 17.5262 44.4304 17.5262 44.7156 17.8115L45.7854 18.8812C46.0707 19.1665 46.0707 19.737 45.7854 20.0223L45.1435 20.6641ZM24.7468 26.6548H21.1097C20.6818 26.6548 20.3252 26.2982 20.3252 25.8703V25.5137C20.3252 25.0858 20.6818 24.7292 21.1097 24.7292H24.7468L25.3887 24.0874C25.674 23.8021 26.2445 23.8021 26.5298 24.0874L27.5995 25.1571C27.8848 25.4424 27.8848 26.0129 27.5995 26.2982L26.5298 27.368C26.2445 27.6532 25.674 27.6532 25.3887 27.368L24.7468 26.6548ZM17.3299 36.6392H24.7468L25.3887 35.9973C25.674 35.7121 26.2445 35.7121 26.5298 35.9973L27.5995 37.0671C27.8848 37.3523 27.8848 37.9229 27.5995 38.2082L26.9577 38.85V46.267C26.9577 46.6949 26.6011 47.0515 26.1732 47.0515H25.8166C25.3887 47.0515 25.0321 46.6949 25.0321 46.267V38.85L24.8182 38.6361H17.4012C16.9733 38.6361 16.6167 38.2795 16.6167 37.8516V37.495C16.5454 36.9958 16.902 36.6392 17.3299 36.6392ZM30.7375 48.6205V41.2748L30.0956 40.6329C29.8104 40.3477 29.8104 39.7771 30.0956 39.4919L31.1654 38.4221C31.4507 38.1368 32.0212 38.1368 32.3065 38.4221L33.3762 39.4919C33.6615 39.7771 33.6615 40.3477 33.3762 40.6329L32.7344 41.2748V48.6205C32.7344 49.0484 32.3778 49.4049 31.9499 49.4049H31.5933C31.0941 49.4049 30.7375 49.0484 30.7375 48.6205ZM43.1467 48.6205V41.2748L42.5048 40.6329C42.2195 40.3477 42.2195 39.7771 42.5048 39.4919L43.5746 38.4221C43.8598 38.1368 44.4304 38.1368 44.7156 38.4221L45.7854 39.4919C46.0707 39.7771 46.0707 40.3477 45.7854 40.6329L45.1435 41.2748V48.6205C45.1435 49.0484 44.787 49.4049 44.3591 49.4049H44.0025C43.5033 49.4049 43.1467 49.0484 43.1467 48.6205ZM48.9234 46.1957V38.7787L48.2815 38.1368C47.9962 37.8516 47.9962 37.281 48.2815 36.9958L49.3513 35.926C49.6365 35.6407 50.2071 35.6407 50.4923 35.926L51.1342 36.5679H58.5512C58.9791 36.5679 59.3357 36.9244 59.3357 37.3523V37.7089C59.3357 38.1368 58.9791 38.4934 58.5512 38.4934H51.1342L50.9202 38.7074V46.1244C50.9202 46.5523 50.5636 46.9088 50.1357 46.9088H49.7792C49.2799 47.0515 48.9234 46.6949 48.9234 46.1957ZM56.483 43.129C56.7682 42.8438 56.7682 42.2732 56.483 41.988L55.4132 40.9182C55.128 40.6329 54.5574 40.6329 54.2721 40.9182L53.2024 41.988C52.9171 42.2732 52.9171 42.8438 53.2024 43.129L54.2721 44.1988C54.5574 44.4841 55.128 44.4841 55.4132 44.1988L56.483 43.129ZM55.4132 7.11388C55.128 6.82861 54.5574 6.82861 54.2721 7.11388L53.2024 8.18364C52.9171 8.46891 52.9171 9.03944 53.2024 9.32471L54.2721 10.3945C54.5574 10.6797 55.128 10.6797 55.4132 10.3945L56.483 9.32471C56.7682 9.03944 56.7682 8.46891 56.483 8.18364L55.4132 7.11388ZM20.4678 44.1988C20.7531 44.4841 21.3236 44.4841 21.6089 44.1988L22.6786 43.129C22.9639 42.8438 22.9639 42.2732 22.6786 41.988L21.6089 40.9182C21.3236 40.6329 20.7531 40.6329 20.4678 40.9182L19.3981 41.988C19.1128 42.2732 19.1128 42.8438 19.3981 43.129L20.4678 44.1988Z" fill="white"/>
<path fill-rule="evenodd" clip-rule="evenodd" d="M12.9797 78.9301V70.372L8.55806 77.789C8.41542 78.0743 8.13015 78.2169 7.84488 78.2169H7.55962C7.27435 78.2169 6.98908 78.0743 6.84645 77.8603L2.42478 70.5859V79.0014C2.42478 79.4293 2.0682 79.7859 1.6403 79.7859H0.784493C0.35659 79.7859 0 79.4293 0 79.0014V66.5209C0 66.093 0.35659 65.7364 0.784493 65.7364H1.6403C1.92556 65.7364 2.21083 65.879 2.35347 66.1643L7.70225 75.1503L12.9797 66.1643C13.1224 65.879 13.4076 65.7364 13.6929 65.7364H14.5487C14.9766 65.7364 15.3332 66.093 15.3332 66.5209V79.0014C15.3332 79.2153 15.2619 79.4293 15.1192 79.5719C14.9766 79.7145 14.7626 79.7859 14.5487 79.7859H13.6929C13.3363 79.7859 12.9797 79.4293 12.9797 78.9301ZM34.6601 78.3595V78.9301C34.6601 79.358 34.3035 79.7145 33.8756 79.7145H24.8897C24.4618 79.7145 24.1052 79.358 24.1052 78.9301V66.4496C24.1052 66.0217 24.4618 65.6651 24.8897 65.6651H33.5904C34.0183 65.6651 34.3749 66.0217 34.3749 66.4496V67.0201C34.3749 67.448 34.0183 67.8046 33.5904 67.8046H26.7439V71.5131H32.7346C33.1625 71.5131 33.5191 71.8697 33.5191 72.2976V72.8681C33.5191 73.296 33.1625 73.6526 32.7346 73.6526H26.7439V77.575H33.8756C34.3035 77.575 34.6601 77.9316 34.6601 78.3595ZM52.7747 72.5115H53.6305C54.0584 72.5115 54.415 72.8681 54.415 73.296V78.1456C53.7018 78.7161 52.846 79.144 51.8476 79.5006C50.8491 79.7859 49.8507 79.9998 48.8522 79.9998C47.4259 79.9998 46.1422 79.7145 44.9298 79.0727C43.7887 78.4308 42.8616 77.575 42.2197 76.5053C41.5779 75.4355 41.2213 74.1518 41.2213 72.7968C41.2213 71.4418 41.5779 70.1581 42.2197 69.0883C42.8616 68.0185 43.7887 67.0914 44.9298 66.5209C46.0709 65.879 47.4259 65.5938 48.8522 65.5938C50.0646 65.5938 51.1344 65.8077 52.0615 66.1643C52.7747 66.4496 53.3452 66.8061 53.8444 67.234C54.0584 67.3767 54.1297 67.5906 54.1297 67.8046C54.1297 68.0185 54.0584 68.2325 53.9158 68.3751L53.4165 68.8743C53.1313 69.1596 52.7034 69.1596 52.3468 68.9457C51.3483 68.1612 50.2786 67.8046 48.9949 67.8046C47.9964 67.8046 47.1406 68.0185 46.3561 68.4464C45.5717 68.8743 45.0011 69.4449 44.5732 70.2294C44.1453 71.0139 43.9314 71.8697 43.9314 72.7968C43.9314 73.7239 44.1453 74.5797 44.5732 75.3642C45.0011 76.1487 45.643 76.7192 46.3561 77.1471C47.1406 77.575 47.9964 77.789 48.9949 77.789C50.0646 77.789 51.0631 77.575 51.9189 77.0758V73.51C51.9902 72.8681 52.3468 72.5115 52.7747 72.5115ZM71.8877 76.5053H64.8273L63.6149 79.2866C63.4723 79.5719 63.187 79.7859 62.9017 79.7859H61.9746C61.6893 79.7859 61.4754 79.6432 61.2614 79.4293C61.1188 79.2153 61.1188 78.9301 61.1901 78.6448L66.8242 66.1643C66.9668 65.879 67.2521 65.6651 67.5373 65.6651H69.1063C69.4629 65.6651 69.6768 65.879 69.8195 66.1643L75.4535 78.6448C75.5962 78.9301 75.5249 79.2153 75.3822 79.4293C75.2396 79.6432 74.9543 79.7859 74.6691 79.7859H73.7419C73.3853 79.7859 73.1001 79.5719 73.0287 79.2866L71.8877 76.5053ZM70.9605 74.4371L68.3218 68.2325L65.6831 74.4371H70.9605Z" fill="white"/>
</svg>
