<svg width="95" height="100" viewBox="0 0 95 100" fill="none" xmlns="http://www.w3.org/2000/svg">
<path fill-rule="evenodd" clip-rule="evenodd" d="M24.2478 10.2296L25.585 8.89235C25.9416 8.53577 26.6548 8.53577 27.0114 8.89235L28.3486 10.2296C28.7051 10.5861 28.7051 11.2993 28.3486 11.6559L27.0114 12.9931C26.6548 13.3497 25.9416 13.3497 25.585 12.9931L24.2478 11.6559C23.8912 11.2102 23.8912 10.5861 24.2478 10.2296ZM46.1778 44.3726V54.0004C46.1778 54.5353 46.6236 54.9811 47.1584 54.9811H47.6042C48.1391 54.9811 48.5848 54.5353 48.5848 54.0004V44.3726L49.3871 43.5703C49.7437 43.2137 49.7437 42.5006 49.3871 42.144L48.0499 40.8068C47.6933 40.4502 46.9802 40.4502 46.6236 40.8068L45.2864 42.144C44.9298 42.5006 44.9298 43.2137 45.2864 43.5703L46.1778 44.3726ZM47.9608 59.795L49.298 61.1322C49.6546 61.4887 49.6546 62.2019 49.298 62.5585L47.9608 63.8957C47.6042 64.2523 46.891 64.2523 46.5344 63.8957L45.1972 62.5585C44.8406 62.2019 44.8406 61.4887 45.1972 61.1322L46.5344 59.795C46.891 59.3492 47.6042 59.3492 47.9608 59.795ZM47.9608 0.334299L49.298 1.6715C49.6546 2.02808 49.6546 2.74125 49.298 3.09784L47.9608 4.43503C47.6042 4.79162 46.891 4.79162 46.5344 4.43503L45.1972 3.09784C44.8406 2.74125 44.8406 2.02808 45.1972 1.6715L46.5344 0.334299C46.891 -0.111433 47.6042 -0.111433 47.9608 0.334299ZM74.7938 31.3573L76.131 30.0201C76.4876 29.6635 77.2008 29.6635 77.5574 30.0201L78.8946 31.3573C79.2512 31.7138 79.2512 32.427 78.8946 32.7836L77.5574 34.1208C77.2008 34.4774 76.4876 34.4774 76.131 34.1208L74.7938 32.7836C74.3481 32.3379 74.3481 31.7138 74.7938 31.3573ZM15.6898 31.3573L17.027 30.0201C17.3835 29.6635 18.0967 29.6635 18.4533 30.0201L19.7905 31.3573C20.1471 31.7138 20.1471 32.427 19.7905 32.7836L18.4533 34.1208C18.0967 34.4774 17.3835 34.4774 17.027 34.1208L15.6898 32.7836C15.244 32.3379 15.244 31.7138 15.6898 31.3573ZM66.949 38.5781L66.1466 37.7758C65.7901 37.4192 65.0769 37.4192 64.7203 37.7758L63.3831 39.113C63.0265 39.4696 63.0265 40.1828 63.3831 40.5393L64.7203 41.8765C65.0769 42.2331 65.7901 42.2331 66.1466 41.8765L66.949 41.0742H76.131C76.6659 41.0742 77.1116 40.6285 77.1116 40.0936V39.6479C77.1116 39.113 76.6659 38.6673 76.131 38.6673H66.949V38.5781ZM66.949 23.0666L66.1466 22.2643C65.7901 21.9077 65.0769 21.9077 64.7203 22.2643L63.3831 23.6015C63.0265 23.9581 63.0265 24.6713 63.3831 25.0279L64.7203 26.3651C65.0769 26.7216 65.7901 26.7216 66.1466 26.3651L66.949 25.5627H76.131C76.6659 25.5627 77.1116 25.117 77.1116 24.5821V24.1364C77.1116 23.6015 76.6659 23.1558 76.131 23.1558H66.949V23.0666ZM27.9028 38.5781L28.7051 37.7758C29.0617 37.4192 29.7749 37.4192 30.1315 37.7758L31.4687 39.113C31.8253 39.4696 31.8253 40.1828 31.4687 40.5393L30.1315 41.8765C29.7749 42.2331 29.0617 42.2331 28.7051 41.8765L27.9028 41.0742H18.7207C18.1859 41.0742 17.7401 40.6285 17.7401 40.0936V39.6479C17.7401 39.113 18.1859 38.6673 18.7207 38.6673H27.9028V38.5781ZM27.9028 23.0666L28.7051 22.2643C29.0617 21.9077 29.7749 21.9077 30.1315 22.2643L31.4687 23.6015C31.8253 23.9581 31.8253 24.6713 31.4687 25.0279L30.1315 26.3651C29.7749 26.7216 29.0617 26.7216 28.7051 26.3651L27.9028 25.5627H18.7207C18.1859 25.5627 17.7401 25.117 17.7401 24.5821V24.1364C17.7401 23.6015 18.1859 23.1558 18.7207 23.1558H27.9028V23.0666ZM63.918 33.3185L63.1157 34.1208C62.7591 34.4774 62.0459 34.4774 61.6893 34.1208L60.3521 32.7836C59.9955 32.427 59.9955 31.7138 60.3521 31.3573L61.6893 30.0201C62.0459 29.6635 62.7591 29.6635 63.1157 30.0201L63.918 30.8224H68.4644C68.9993 30.8224 69.445 31.2681 69.445 31.803V32.2487C69.445 32.7836 68.9993 33.2293 68.4644 33.2293H63.918V33.3185ZM33.6973 6.30711C33.6973 5.77223 33.2516 5.3265 32.7167 5.3265H32.271C31.7361 5.3265 31.2904 5.77223 31.2904 6.30711V15.5783L31.023 15.8458H21.7517C21.2168 15.8458 20.7711 16.2915 20.7711 16.8264V17.2721C20.7711 17.807 21.2168 18.2527 21.7517 18.2527H31.023L31.8253 19.055C32.1818 19.4116 32.895 19.4116 33.2516 19.055L34.5888 17.7179C34.9454 17.3613 34.9454 16.6481 34.5888 16.2915L33.7865 15.4892V6.30711H33.6973ZM38.4221 12.5474V3.36527C38.4221 2.83039 38.8678 2.38466 39.4027 2.38466H39.8484C40.3833 2.38466 40.8291 2.83039 40.8291 3.36527V12.5474L41.6314 13.3497C41.988 13.7063 41.988 14.4194 41.6314 14.776L40.2942 16.1132C39.9376 16.4698 39.2244 16.4698 38.8678 16.1132L37.5306 14.776C37.1741 14.4194 37.1741 13.7063 37.5306 13.3497L38.4221 12.5474ZM46.1778 19.7682V10.1404C46.1778 9.60553 46.6236 9.15979 47.1584 9.15979H47.6042C48.1391 9.15979 48.5848 9.60553 48.5848 10.1404V19.7682L49.3871 20.5705C49.7437 20.9271 49.7437 21.6403 49.3871 21.9969L48.0499 23.3341C47.6933 23.6907 46.9802 23.6907 46.6236 23.3341L45.2864 21.9969C44.9298 21.6403 44.9298 20.9271 45.2864 20.5705L46.1778 19.7682ZM53.9336 12.5474V3.36527C53.9336 2.83039 54.3793 2.38466 54.9142 2.38466H55.3599C55.8948 2.38466 56.3405 2.83039 56.3405 3.36527V12.5474L57.1429 13.3497C57.4994 13.7063 57.4994 14.4194 57.1429 14.776L55.8057 16.1132C55.4491 16.4698 54.7359 16.4698 54.3793 16.1132L53.0421 14.776C52.6855 14.4194 52.6855 13.7063 53.0421 13.3497L53.9336 12.5474ZM73.1892 18.3419H63.918L63.1157 19.1442C62.7591 19.5008 62.0459 19.5008 61.6893 19.1442L60.3521 17.807C59.9955 17.4504 59.9955 16.7372 60.3521 16.3807L61.1544 15.5783V6.84198V6.30711C61.1544 6.03967 61.2436 5.86138 61.3327 5.68308C61.511 5.41565 61.7785 5.3265 62.1351 5.3265H62.5808C63.1157 5.3265 63.5614 5.77223 63.5614 6.30711V15.5783L63.8288 15.8458H73.1001C73.6349 15.8458 74.0807 16.2915 74.0807 16.8264V17.2721C74.1698 17.8961 73.7241 18.3419 73.1892 18.3419ZM56.4297 25.8302V38.3107L57.232 39.113C57.5886 39.4696 57.5886 40.1828 57.232 40.5393L55.8948 41.8765C55.5382 42.2331 54.825 42.2331 54.4685 41.8765L53.1313 40.5393C52.7747 40.1828 52.7747 39.4696 53.1313 39.113L53.9336 38.3107V27.3457L47.4259 33.8534L40.9182 27.3457V38.3107L41.7205 39.113C42.0771 39.4696 42.0771 40.1828 41.7205 40.5393L40.3833 41.8765C40.0267 42.2331 39.3136 42.2331 38.957 41.8765L37.6198 40.5393C37.2632 40.1828 37.2632 39.4696 37.6198 39.113L38.4221 38.3107V25.8302L37.6198 25.0279C37.2632 24.6713 37.2632 23.9581 37.6198 23.6015L38.957 22.2643C39.3136 21.9077 40.0267 21.9077 40.3833 22.2643L42.0771 23.9581C42.2554 24.1364 42.2554 24.493 42.0771 24.6713L41.8988 24.8496L47.4259 30.3766L52.953 24.8496L52.7747 24.6713C52.5964 24.493 52.5964 24.1364 52.7747 23.9581L54.4685 22.2643C54.825 21.9077 55.5382 21.9077 55.8948 22.2643L57.232 23.6015C57.5886 23.9581 57.5886 24.6713 57.232 25.0279L56.4297 25.8302ZM30.9338 33.3185H26.3873C25.8525 33.3185 25.4067 32.8727 25.4067 32.3379V31.8921C25.4067 31.3573 25.8525 30.9115 26.3873 30.9115H30.9338L31.7361 30.1092C32.0927 29.7526 32.8059 29.7526 33.1625 30.1092L34.4997 31.4464C34.8562 31.803 34.8562 32.5162 34.4997 32.8727L33.1625 34.2099C32.8059 34.5665 32.0927 34.5665 31.7361 34.2099L30.9338 33.3185ZM21.6626 45.799H30.9338L31.7361 44.9967C32.0927 44.6401 32.8059 44.6401 33.1625 44.9967L34.4997 46.3339C34.8562 46.6904 34.8562 47.4036 34.4997 47.7602L33.6973 48.5625V57.8337C33.6973 58.3686 33.2516 58.8144 32.7167 58.8144H32.271C31.7361 58.8144 31.2904 58.3686 31.2904 57.8337V48.5625L31.023 48.2951H21.7517C21.2168 48.2951 20.7711 47.8493 20.7711 47.3145V46.8687C20.682 46.2447 21.1277 45.799 21.6626 45.799ZM38.4221 60.7756V51.5935L37.6198 50.7912C37.2632 50.4346 37.2632 49.7214 37.6198 49.3648L38.957 48.0276C39.3136 47.6711 40.0267 47.6711 40.3833 48.0276L41.7205 49.3648C42.0771 49.7214 42.0771 50.4346 41.7205 50.7912L40.9182 51.5935V60.7756C40.9182 61.3105 40.4725 61.7562 39.9376 61.7562H39.4919C38.8678 61.7562 38.4221 61.3105 38.4221 60.7756ZM53.9336 60.7756V51.5935L53.1313 50.7912C52.7747 50.4346 52.7747 49.7214 53.1313 49.3648L54.4685 48.0276C54.825 47.6711 55.5382 47.6711 55.8948 48.0276L57.232 49.3648C57.5886 49.7214 57.5886 50.4346 57.232 50.7912L56.4297 51.5935V60.7756C56.4297 61.3105 55.9839 61.7562 55.4491 61.7562H55.0033C54.3793 61.7562 53.9336 61.3105 53.9336 60.7756ZM61.1544 57.7446V48.4734L60.3521 47.6711C59.9955 47.3145 59.9955 46.6013 60.3521 46.2447L61.6893 44.9075C62.0459 44.5509 62.7591 44.5509 63.1157 44.9075L63.918 45.7098H73.1892C73.7241 45.7098 74.1698 46.1556 74.1698 46.6904V47.1362C74.1698 47.6711 73.7241 48.1168 73.1892 48.1168H63.918L63.6505 48.3842V57.6555C63.6505 58.1903 63.2048 58.6361 62.6699 58.6361H62.2242C61.6002 58.8144 61.1544 58.3686 61.1544 57.7446ZM70.604 53.9113C70.9606 53.5547 70.9606 52.8415 70.604 52.485L69.2668 51.1478C68.9102 50.7912 68.197 50.7912 67.8404 51.1478L66.5032 52.485C66.1466 52.8415 66.1466 53.5547 66.5032 53.9113L67.8404 55.2485C68.197 55.6051 68.9102 55.6051 69.2668 55.2485L70.604 53.9113ZM69.2668 8.89235C68.9102 8.53577 68.197 8.53577 67.8404 8.89235L66.5032 10.2296C66.1466 10.5861 66.1466 11.2993 66.5032 11.6559L67.8404 12.9931C68.197 13.3497 68.9102 13.3497 69.2668 12.9931L70.604 11.6559C70.9606 11.2993 70.9606 10.5861 70.604 10.2296L69.2668 8.89235ZM25.585 55.2485C25.9416 55.6051 26.6548 55.6051 27.0114 55.2485L28.3486 53.9113C28.7051 53.5547 28.7051 52.8415 28.3486 52.485L27.0114 51.1478C26.6548 50.7912 25.9416 50.7912 25.585 51.1478L24.2478 52.485C23.8912 52.8415 23.8912 53.5547 24.2478 53.9113L25.585 55.2485Z" fill="url(#paint0_linear)"/>
<path fill-rule="evenodd" clip-rule="evenodd" d="M16.2246 98.6628V87.9652L10.6976 97.2364C10.5193 97.593 10.1627 97.7713 9.80611 97.7713H9.44953C9.09294 97.7713 8.73635 97.593 8.55806 97.3256L3.03097 88.2327V98.7519C3.03097 99.2868 2.58525 99.7325 2.05037 99.7325H0.980616C0.445738 99.7325 0 99.2868 0 98.7519V83.1513C0 82.6164 0.445738 82.1707 0.980616 82.1707H2.05037C2.40696 82.1707 2.76354 82.349 2.94183 82.7056L9.62782 93.938L16.2246 82.7056C16.4029 82.349 16.7595 82.1707 17.1161 82.1707H18.1859C18.7207 82.1707 19.1665 82.6164 19.1665 83.1513V98.7519C19.1665 99.0194 19.0773 99.2868 18.899 99.4651C18.7207 99.6434 18.4533 99.7325 18.1859 99.7325H17.1161C16.6704 99.7325 16.2246 99.2868 16.2246 98.6628ZM43.3252 97.9496V98.6628C43.3252 99.1977 42.8794 99.6434 42.3446 99.6434H31.1121C30.5772 99.6434 30.1315 99.1977 30.1315 98.6628V83.0622C30.1315 82.5273 30.5772 82.0816 31.1121 82.0816H41.988C42.5229 82.0816 42.9686 82.5273 42.9686 83.0622V83.7753C42.9686 84.3102 42.5229 84.7559 41.988 84.7559H33.4299V89.3916H40.9182C41.4531 89.3916 41.8988 89.8373 41.8988 90.3722V91.0853C41.8988 91.6202 41.4531 92.066 40.9182 92.066H33.4299V96.969H42.3446C42.8794 96.969 43.3252 97.4147 43.3252 97.9496ZM65.9684 90.6396H67.0381C67.573 90.6396 68.0187 91.0853 68.0187 91.6202V97.6822C67.1272 98.3953 66.0575 98.9302 64.8095 99.376C63.5614 99.7325 62.3134 100 61.0653 100C59.2824 100 57.6777 99.6434 56.1622 98.8411C54.7359 98.0388 53.577 96.969 52.7747 95.6318C51.9724 94.2946 51.5266 92.69 51.5266 90.9962C51.5266 89.3024 51.9724 87.6978 52.7747 86.3606C53.577 85.0234 54.7359 83.8645 56.1622 83.1513C57.5886 82.349 59.2824 81.9924 61.0653 81.9924C62.5808 81.9924 63.918 82.2598 65.0769 82.7056C65.9684 83.0622 66.6815 83.5079 67.3055 84.0428C67.573 84.2211 67.6621 84.4885 67.6621 84.7559C67.6621 85.0234 67.573 85.2908 67.3947 85.4691L66.7707 86.0931C66.4141 86.4497 65.8792 86.4497 65.4335 86.1823C64.1854 85.2017 62.8482 84.7559 61.2436 84.7559C59.9955 84.7559 58.9258 85.0234 57.9452 85.5583C56.9646 86.0931 56.2514 86.8063 55.7165 87.7869C55.1816 88.7675 54.9142 89.8373 54.9142 90.9962C54.9142 92.1551 55.1816 93.2249 55.7165 94.2055C56.2514 95.1861 57.0537 95.8993 57.9452 96.4341C58.9258 96.969 59.9955 97.2364 61.2436 97.2364C62.5808 97.2364 63.8288 96.969 64.8986 96.345V91.8877C64.9877 91.0853 65.4335 90.6396 65.9684 90.6396ZM89.8596 95.6318H81.0341L79.5186 99.1085C79.3403 99.4651 78.9837 99.7325 78.6272 99.7325H77.4682C77.1116 99.7325 76.8442 99.5543 76.5768 99.2868C76.3985 99.0194 76.3985 98.6628 76.4876 98.3062L83.5302 82.7056C83.7085 82.349 84.0651 82.0816 84.4217 82.0816H86.3829C86.8286 82.0816 87.096 82.349 87.2743 82.7056L94.3169 98.3062C94.4952 98.6628 94.4061 99.0194 94.2278 99.2868C94.0495 99.5543 93.6929 99.7325 93.3363 99.7325H92.1774C91.7317 99.7325 91.3751 99.4651 91.2859 99.1085L89.8596 95.6318ZM88.7007 93.0466L85.4023 85.2908L82.1039 93.0466H88.7007Z" fill="url(#paint1_linear)"/>
<defs>
<linearGradient id="paint0_linear" x1="51.4212" y1="6.80481" x2="43.0739" y2="57.307" gradientUnits="userSpaceOnUse">
<stop stop-color="#5BC5F2"/>
<stop offset="1" stop-color="#4281C3"/>
</linearGradient>
<linearGradient id="paint1_linear" x1="56.608" y1="79.3403" x2="49.922" y2="105.193" gradientUnits="userSpaceOnUse">
<stop stop-color="#5BC5F2"/>
<stop offset="1" stop-color="#4281C3"/>
</linearGradient>
</defs>
</svg>
